<svg width="335" height="314" viewBox="0 0 335 314" fill="none" xmlns="http://www.w3.org/2000/svg">
<g clip-path="url(#clip0_3_238)">
<path d="M149.089 59.6699C149.024 59.6699 148.959 59.6672 148.894 59.6626C144.597 59.3516 129.893 57.0085 121.111 39.9047C120.462 38.6422 120.59 37.0358 121.43 35.9084C128.764 29.1899 134.492 21.9185 137.874 13.839C138.484 13.0193 139.401 12.5713 140.328 12.5897C141.28 12.6151 142.158 13.1202 142.736 13.9754C146.905 20.1467 155.136 31.0714 163.418 34.9016C164.349 35.3325 165.023 36.2069 165.267 37.302C165.51 38.3879 165.286 39.5074 164.652 40.3732L151.479 58.3916C150.887 59.2021 150.005 59.6699 149.089 59.6699Z" fill="#E6E6E6"/>
<path d="M124.148 36.9936C123.924 37.2954 123.883 37.7257 124.046 38.0657C131.991 54.5442 146.194 55.837 148.961 55.9286C149.227 55.9457 149.477 55.8107 149.646 55.5794L162.724 37.6907C162.91 37.4371 162.967 37.1135 162.881 36.8012C162.796 36.4876 162.584 36.2537 162.302 36.1614C153.419 33.2372 144.099 19.6927 141.455 15.6108C141.3 15.3723 141.061 15.2293 140.799 15.2194C140.531 15.2165 140.286 15.3354 140.115 15.5647C136.33 23.8764 131.032 31.0373 124.148 36.9936Z" fill="white"/>
<path d="M130.734 40.8536L142.589 27.2373C143.4 26.3066 142.13 24.8741 141.319 25.806L129.464 39.4223C128.653 40.353 129.923 41.7855 130.734 40.8536Z" fill="#E6E6E6"/>
<path d="M137.89 44.6897C141.162 41.3862 144.005 37.5613 146.333 33.3643C146.948 32.2564 145.394 31.2391 144.782 32.3426C142.531 36.4003 139.782 40.0651 136.619 43.2584C135.757 44.1297 137.031 45.5573 137.89 44.6897Z" fill="#E6E6E6"/>
<path d="M144.339 49.2831C147.318 45.566 149.853 41.4174 151.85 36.9423C152.368 35.7814 150.818 34.7553 150.298 35.9207C148.369 40.2444 145.947 44.2596 143.068 47.8518C142.295 48.8166 143.562 50.2525 144.339 49.2831Z" fill="#E6E6E6"/>
<path d="M159.871 65.0676C159.806 65.0676 159.741 65.065 159.676 65.0604C155.379 64.7494 140.674 62.4063 131.893 45.3024C131.244 44.04 131.372 42.4336 132.212 41.3062C139.179 34.499 144.425 27.0554 148.656 19.2368C149.266 18.4171 150.183 17.969 151.11 17.9875C152.062 18.0129 152.94 18.5179 153.518 19.3732C157.687 25.5445 165.918 36.4691 174.2 40.2994C175.131 40.7303 175.805 41.6047 176.049 42.6998C176.292 43.7856 176.067 44.9051 175.434 45.7709L162.261 63.7894C161.669 64.5998 160.787 65.0676 159.871 65.0676Z" fill="#E6E6E6"/>
<path d="M134.93 42.3914C134.706 42.6932 134.665 43.1234 134.828 43.4634C142.773 59.942 156.976 61.2348 159.742 61.3264C160.009 61.3435 160.258 61.2084 160.428 60.9771L173.506 43.0885C173.691 42.8348 173.748 42.5113 173.663 42.199C173.577 41.8853 173.366 41.6514 173.084 41.5592C164.201 38.635 154.881 25.0905 152.236 21.0086C152.082 20.77 151.843 20.6271 151.581 20.6172C151.312 20.6142 151.068 20.7331 150.896 20.9624C146.363 29.4479 141.263 36.9697 134.93 42.3914Z" fill="white"/>
<path d="M141.516 46.2513L153.372 32.6351C154.182 31.7043 152.913 30.2718 152.101 31.2038L140.246 44.82C139.435 45.7508 140.705 47.1833 141.516 46.2513Z" fill="#E6E6E6"/>
<path d="M148.672 50.0874C151.944 46.784 154.787 42.9591 157.115 38.762C157.73 37.6541 156.176 36.6369 155.564 37.7404C153.313 41.798 150.564 45.4628 147.401 48.6561C146.538 49.5274 147.812 50.955 148.672 50.0874Z" fill="#E6E6E6"/>
<path d="M155.121 54.6809C158.099 50.9637 160.635 46.8151 162.632 42.3401C163.149 41.1792 161.6 40.1531 161.08 41.3185C159.151 45.6421 156.729 49.6574 153.85 53.2496C153.077 54.2144 154.344 55.6503 155.121 54.6809Z" fill="#E6E6E6"/>
<path d="M277.87 190.565C277.805 190.565 277.74 190.563 277.675 190.558C273.378 190.247 258.673 187.904 249.892 170.8C249.243 169.538 249.371 167.931 250.211 166.804L266.655 144.735C267.265 143.915 268.182 143.467 269.109 143.485C270.061 143.511 271.283 143.829 271.517 144.871C273.411 153.341 281.57 164.338 292.199 165.797C293.198 165.934 293.804 167.102 294.048 168.198C294.291 169.283 294.066 170.403 293.433 171.269L280.26 189.287C279.668 190.098 278.786 190.565 277.87 190.565Z" fill="#E6E6E6"/>
<path d="M252.929 167.889C252.705 168.191 252.664 168.621 252.827 168.961C260.772 185.44 274.975 186.733 277.741 186.824C278.008 186.841 278.257 186.706 278.427 186.475L291.505 168.586C291.69 168.333 291.747 168.009 291.662 167.697C291.576 167.383 291.376 167.073 291.083 167.057C279.776 166.46 270.694 152.686 270.235 146.506C270.213 146.212 269.842 146.125 269.58 146.115C269.311 146.112 269.067 146.231 268.896 146.46L252.929 167.889Z" fill="white"/>
<path d="M259.515 171.749L271.37 158.133C272.181 157.202 270.911 155.77 270.1 156.702L258.244 170.318C257.434 171.249 258.704 172.681 259.515 171.749Z" fill="#E6E6E6"/>
<path d="M266.67 175.585C269.942 172.282 272.786 168.457 275.114 164.26C275.728 163.152 274.174 162.135 273.562 163.238C271.311 167.296 268.563 170.961 265.4 174.154C264.537 175.025 265.811 176.453 266.67 175.585Z" fill="#E6E6E6"/>
<path d="M273.12 180.179C276.099 176.462 278.634 172.313 280.631 167.838C281.149 166.677 279.599 165.651 279.079 166.816C277.15 171.14 274.728 175.155 271.849 178.747C271.076 179.712 272.343 181.148 273.12 180.179Z" fill="#E6E6E6"/>
<path d="M228.607 308.205L221.504 308.204L218.125 277.34L228.609 277.341L228.607 308.205Z" fill="#FFB6B6"/>
<path d="M204.271 308.023C204.049 308.443 203.933 309.797 203.933 310.285C203.933 311.785 205.012 313.001 206.344 313.001H228.342C229.25 313.001 229.987 312.171 229.987 311.148V310.116C229.987 310.116 231.075 307.016 228.834 303.194C228.834 303.194 226.05 306.186 221.889 301.499L220.662 298.995L211.78 306.313L206.857 306.995C205.78 307.144 204.825 306.972 204.271 308.023Z" fill="#2F2E41"/>
<path d="M294.201 292.414L288.151 296.606L270.916 272.313L279.846 266.126L294.201 292.414Z" fill="#FFB6B6"/>
<path d="M273.388 306.624C273.395 307.112 273.925 308.334 274.152 308.75C274.85 310.027 276.335 310.426 277.469 309.64L296.206 296.656C296.979 296.12 297.221 294.978 296.745 294.107L296.265 293.228C296.265 293.228 295.749 289.945 292.063 288.012C292.063 288.012 291.084 292.205 285.359 290.668L283.149 289.26L278.988 300.735L275.112 304.222C274.264 304.985 273.371 305.402 273.388 306.624Z" fill="#2F2E41"/>
<path d="M249.555 163.85C249.203 162.122 249.23 160.445 249.56 159.055L245.28 142.843L252.248 140.715L255.84 157.389C256.672 158.471 257.344 159.963 257.696 161.691C258.499 165.637 257.328 169.32 255.08 169.917C252.832 170.513 250.358 167.797 249.555 163.85Z" fill="#FFB6B6"/>
<path d="M209.905 55.7853C209.905 55.7853 221.135 50.279 227.406 58.236C233.114 65.4785 244.7 87.2723 243.51 89.3927L254.917 150.107L246.462 153.041L224.033 83.2057L209.905 55.7853Z" fill="#FF6978"/>
<path d="M197.537 145.762L203.323 221.805L217.306 292.416L232.254 290.787L225.022 213.657L229.449 145.112L197.537 145.762Z" fill="#2F2E41"/>
<path d="M198.732 162.262L234.772 226.891L275.894 282.464L288.523 273.309L250.755 208.46C244.975 179.895 238.573 153.452 226.842 145.232L198.732 162.262Z" fill="#2F2E41"/>
<path d="M196.449 164.17C194.759 164.17 193.121 163.5 191.787 162.225C189.996 160.514 189.063 158.02 189.227 155.382L192.371 121.404L191.17 84.3005L191.178 84.2603L194.91 64.0978C194.947 63.457 195.066 62.7786 195.259 62.1273L200.772 43.4559C201.763 40.0975 204.54 37.841 207.682 37.841H212.557C214.998 37.841 217.264 39.2066 218.617 41.4943L222.885 48.7054C223.169 49.1844 223.408 49.6987 223.596 50.2341L233.018 77.0196C233.317 77.8699 233.487 78.7643 233.523 79.6779L236.446 154.015C236.544 156.483 235.662 158.845 234.029 160.495C232.405 162.136 230.238 162.861 228.09 162.488C215.787 160.347 205.019 162.097 198.152 163.943C197.585 164.095 197.014 164.17 196.449 164.17Z" fill="#FF6978"/>
<path d="M199.465 88.7294L191.268 81.6683C191.268 81.6683 195.126 43.1036 205.252 43.1036C215.378 43.1036 220.682 36.5856 220.682 36.5856C220.682 36.5856 256.846 93.6179 246.72 100.136C236.594 106.654 222.61 103.395 222.61 103.395L217.685 54.6742C217.08 52.0987 213.934 51.8198 212.978 54.257L199.465 88.7294Z" fill="#3F3D56"/>
<path d="M212.95 34.5865C220.691 34.5865 226.966 27.5177 226.966 18.7979C226.966 10.0782 220.691 3.00938 212.95 3.00938C205.209 3.00938 198.934 10.0782 198.934 18.7979C198.934 27.5177 205.209 34.5865 212.95 34.5865Z" fill="#FFB6B6"/>
<path d="M224.05 30.7336C222.786 31.2653 220.847 32.0921 219.583 32.6239C218.404 29.9761 219.848 28.6021 219.998 25.6446C220.048 24.6576 220.175 23.6696 220.102 22.6844C220.029 21.6992 219.729 20.6879 219.069 20.036C218.06 19.0388 216.379 19.201 215.402 20.2381C214.425 21.2752 214.147 22.989 214.546 24.4328C210.703 22.5614 208.22 17.6519 208.751 12.9737C207.603 12.4669 206.427 11.9533 205.194 11.9145C203.962 11.8758 202.642 12.4055 201.985 13.5807C201.525 14.4048 201.433 15.4508 200.916 16.2314C200.076 17.4998 198.262 17.5981 197.147 16.636C196.032 15.6738 195.605 13.9254 195.843 12.3661C196.081 10.8068 194.35 7.62468 195.319 6.47893C195.98 5.69733 199.259 6.80481 199.997 6.11532C200.669 5.48628 201.344 4.85515 202.086 4.3333C203.026 3.67089 204.069 3.19118 205.152 2.92163C206.177 2.66666 207.23 2.59969 208.278 2.53353C209.342 2.46636 210.814 0.080041 211.878 0.0128727C215.01 -0.184874 217.81 1.94579 220.815 2.96018C223.82 3.97458 225.711 6.88753 227.374 9.88391C229.744 14.152 228.939 18.8286 227.307 22.9097C226.904 23.9184 228.257 24.9785 228.057 26.0616C227.87 27.0684 227.033 27.7975 226.837 28.802C226.67 29.6609 225.68 28.6658 225.444 29.504C225.24 30.2273 224.64 30.738 223.998 30.9689C223.357 31.1997 222.67 31.1951 221.996 31.1882" fill="#2F2E41"/>
<path d="M221.041 36.1805L221.535 36.5857L222.78 37.607C226.525 40.6778 226.177 47.0879 222.128 49.6216L217.065 40.5118" fill="#3F3D56"/>
<path d="M302.5 302.305C303.737 302.392 304.421 300.661 303.485 299.651L303.392 299.234C303.404 299.201 303.417 299.167 303.429 299.134C304.68 295.773 308.922 295.796 310.162 299.162C311.264 302.15 312.666 305.143 313.011 308.302C313.166 309.696 313.096 311.117 312.821 312.485C315.402 306.136 316.76 299.203 316.76 292.23C316.76 290.478 316.675 288.726 316.501 286.979C316.357 285.549 316.16 284.128 315.905 282.721C314.524 275.112 311.533 267.865 307.22 261.812C305.146 260.535 303.417 258.539 302.372 256.146C301.997 255.283 301.703 254.355 301.563 253.41C301.799 253.444 302.453 249.396 302.275 249.147C302.604 248.585 303.193 248.306 303.552 247.757C305.338 245.029 307.799 245.505 309.084 249.213C311.829 250.773 311.856 253.361 310.171 255.85C309.1 257.433 308.953 259.576 308.013 261.271C308.109 261.411 308.21 261.546 308.307 261.685C310.08 264.248 311.614 267.002 312.907 269.896C312.542 266.68 313.082 262.805 314.001 260.308C315.049 257.463 317.011 255.066 318.74 252.606C320.816 249.651 325.073 250.941 325.439 254.687C325.442 254.723 325.446 254.759 325.449 254.795C325.192 254.958 324.941 255.132 324.695 255.315C323.294 256.359 323.778 258.806 325.438 259.094L325.476 259.101C325.383 260.142 325.225 261.175 324.992 262.191C327.21 271.85 322.423 275.368 315.588 275.526C315.437 275.613 315.29 275.7 315.139 275.783C315.831 277.979 316.385 280.233 316.795 282.516C317.162 284.534 317.418 286.573 317.561 288.622C317.739 291.206 317.723 293.803 317.53 296.383L317.541 296.291C318.033 293.45 319.402 290.796 321.391 288.957C324.353 286.216 328.538 285.207 331.734 283.003C333.272 281.943 335.244 283.313 334.975 285.322L334.962 285.418C334.486 285.636 334.022 285.889 333.573 286.172C333.317 286.336 333.065 286.509 332.819 286.692C331.418 287.736 331.902 290.183 333.563 290.471L333.6 290.478C333.627 290.482 333.651 290.487 333.678 290.491C332.861 292.674 331.724 294.701 330.3 296.448C328.914 304.88 322.959 305.68 316.59 303.225H316.586C315.889 306.642 314.872 309.98 313.564 313.161H302.771C302.732 313.026 302.697 312.886 302.662 312.751C303.66 312.821 304.666 312.756 305.649 312.551C304.848 311.444 304.047 310.328 303.246 309.221C303.227 309.2 303.212 309.178 303.196 309.156C302.79 308.59 302.38 308.027 301.974 307.461L301.973 307.46C301.948 305.721 302.133 303.987 302.5 302.305Z" fill="#F2F2F2"/>
<path d="M115.888 313.197C115.888 313.642 116.205 314 116.601 314H334.203C334.599 314 334.916 313.642 334.916 313.197C334.916 312.752 334.599 312.394 334.203 312.394H116.601C116.205 312.394 115.888 312.752 115.888 313.197Z" fill="#CCCCCC"/>
<path d="M150.355 54.9708C151.619 55.9104 152.59 57.0937 153.18 58.3008L165.723 66.3951L162.129 73.0057L149.793 64.0831C148.575 63.9463 147.227 63.4062 145.963 62.4666C143.076 60.3201 141.718 56.902 142.931 54.8321C144.143 52.7621 147.467 52.8242 150.355 54.9708Z" fill="#FFB6B6"/>
<path d="M209.37 46.4382C217.369 40.9124 225.407 53.5667 218.295 60.4614L218.271 60.4849L189.854 90.5919L155.845 71.6743L159.208 61.4602L185.556 73.2173L205.321 50.1042C206.697 48.5525 208.051 47.3499 209.37 46.4382Z" fill="#FF6978"/>
<path d="M40.9072 96.7086C40.2465 96.7086 39.7092 97.3138 39.7092 98.058V118.974C39.7092 119.719 40.2465 120.324 40.9072 120.324C41.5679 120.324 42.1051 119.719 42.1051 118.974V98.058C42.1051 97.3138 41.5679 96.7086 40.9072 96.7086Z" fill="#3F3D56"/>
<path d="M52.6478 116.863C56.7708 116.863 60.1131 113.178 60.1131 108.631C60.1131 104.085 56.7708 100.399 52.6478 100.399C48.5249 100.399 45.1826 104.085 45.1826 108.631C45.1826 113.178 48.5249 116.863 52.6478 116.863Z" fill="#FF6978"/>
<path d="M112.494 105.815H72.3111C70.9326 105.815 69.811 104.552 69.811 102.999C69.811 101.446 70.9326 100.183 72.3111 100.183H112.494C113.872 100.183 114.994 101.446 114.994 102.999C114.994 104.552 113.872 105.815 112.494 105.815Z" fill="#F2F2F2"/>
<path d="M143.852 115.347H72.3111C70.9326 115.347 69.811 114.083 69.811 112.531C69.811 110.978 70.9326 109.714 72.3111 109.714H143.852C145.231 109.714 146.352 110.978 146.352 112.531C146.352 114.083 145.231 115.347 143.852 115.347Z" fill="#F2F2F2"/>
<path d="M7.46523 161.381C11.5882 161.381 14.9305 157.696 14.9305 153.149C14.9305 148.603 11.5882 144.917 7.46523 144.917C3.3423 144.917 0 148.603 0 153.149C0 157.696 3.3423 161.381 7.46523 161.381Z" fill="#FF6978"/>
<path d="M67.3109 150.333H27.1285C25.75 150.333 24.6284 149.07 24.6284 147.517C24.6284 145.964 25.75 144.701 27.1285 144.701H67.3109C68.6894 144.701 69.811 145.964 69.811 147.517C69.811 149.07 68.6894 150.333 67.3109 150.333Z" fill="#F2F2F2"/>
<path d="M77.5805 188.377C81.7034 188.377 85.0457 184.691 85.0457 180.145C85.0457 175.598 81.7034 171.913 77.5805 171.913C73.4575 171.913 70.1152 175.598 70.1152 180.145C70.1152 184.691 73.4575 188.377 77.5805 188.377Z" fill="#FF6978"/>
<path d="M168.785 186.86H97.2437C95.8652 186.86 94.7437 185.597 94.7437 184.044C94.7437 182.491 95.8652 181.228 97.2437 181.228H168.785C170.163 181.228 171.285 182.491 171.285 184.044C171.285 185.597 170.163 186.86 168.785 186.86Z" fill="#F2F2F2"/>
<path d="M151.11 34.4516C155.233 34.4516 158.575 30.766 158.575 26.2195C158.575 21.6731 155.233 17.9875 151.11 17.9875C146.987 17.9875 143.645 21.6731 143.645 26.2195C143.645 30.766 146.987 34.4516 151.11 34.4516Z" fill="#FF6978"/>
<path d="M288.523 172.457C292.646 172.457 295.988 168.772 295.988 164.225C295.988 159.679 292.646 155.993 288.523 155.993C284.4 155.993 281.058 159.679 281.058 164.225C281.058 168.772 284.4 172.457 288.523 172.457Z" fill="#FF6978"/>
</g>
<defs>
<clipPath id="clip0_3_238">
<rect width="335" height="314" fill="white"/>
</clipPath>
</defs>
</svg>
