<svg width="1564" height="1257" viewBox="0 0 1564 1257" fill="none" xmlns="http://www.w3.org/2000/svg">
<g clip-path="url(#clip0_3_238)">
<path d="M696.047 238.869C695.744 238.869 695.441 238.859 695.136 238.84C675.074 237.595 606.425 228.216 565.426 159.746C562.397 154.692 562.995 148.261 566.916 143.748C601.154 116.852 627.9 87.744 643.686 55.4002C646.537 52.1188 650.815 50.3252 655.145 50.399C659.591 50.5006 663.687 52.5224 666.385 55.9462C685.85 80.6511 724.279 124.384 762.945 139.718C767.291 141.443 770.437 144.943 771.578 149.327C772.71 153.674 771.662 158.155 768.706 161.621L707.205 233.752C704.44 236.997 700.322 238.869 696.047 238.869Z" fill="#E6E6E6"/>
<path d="M579.608 148.092C578.56 149.3 578.369 151.023 579.132 152.384C616.222 218.351 682.532 223.526 695.448 223.893C696.691 223.961 697.858 223.42 698.647 222.495L759.707 150.883C760.571 149.867 760.837 148.572 760.44 147.322C760.038 146.067 759.053 145.13 757.734 144.761C716.264 133.055 672.753 78.8336 660.405 62.4929C659.683 61.5381 658.567 60.9657 657.346 60.9261C656.091 60.9143 654.949 61.3904 654.15 62.3083C636.482 95.5815 611.744 124.248 579.608 148.092Z" fill="white"/>
<path d="M610.356 163.544L665.704 109.036C669.487 105.31 663.56 99.5755 659.771 103.306L604.423 157.815C600.64 161.541 606.567 167.275 610.356 163.544Z" fill="#E6E6E6"/>
<path d="M643.761 178.901C659.037 165.677 672.311 150.365 683.18 133.563C686.049 129.128 678.794 125.056 675.936 129.474C665.428 145.717 652.595 160.388 637.829 173.171C633.8 176.659 639.749 182.374 643.761 178.901Z" fill="#E6E6E6"/>
<path d="M673.869 197.289C687.777 182.409 699.615 165.801 708.935 147.887C711.353 143.24 704.119 139.132 701.692 143.797C692.687 161.106 681.377 177.179 667.937 191.56C664.327 195.422 670.242 201.17 673.869 197.289Z" fill="#E6E6E6"/>
<path d="M746.382 260.478C746.079 260.478 745.776 260.467 745.472 260.449C725.409 259.204 656.76 249.824 615.761 181.354C612.733 176.3 613.331 169.869 617.251 165.356C649.779 138.106 674.27 108.308 694.022 77.0084C696.873 73.7271 701.151 71.9334 705.48 72.0073C709.926 72.1088 714.023 74.1306 716.721 77.5544C736.185 102.259 774.614 145.993 813.281 161.326C817.627 163.051 820.773 166.551 821.913 170.935C823.045 175.282 821.998 179.763 819.041 183.229L757.541 255.361C754.776 258.605 750.657 260.478 746.382 260.478Z" fill="#E6E6E6"/>
<path d="M629.943 169.701C628.896 170.909 628.705 172.631 629.468 173.992C666.557 239.959 732.867 245.134 745.783 245.501C747.027 245.569 748.193 245.029 748.982 244.103L810.042 172.491C810.906 171.476 811.173 170.181 810.775 168.93C810.374 167.675 809.388 166.738 808.069 166.369C766.599 154.663 723.088 100.442 710.74 84.1012C710.018 83.1463 708.902 82.5739 707.682 82.5343C706.427 82.5225 705.284 82.9986 704.485 83.9165C683.32 117.885 659.512 147.997 629.943 169.701Z" fill="white"/>
<path d="M660.691 185.153L716.039 130.644C719.822 126.918 713.895 121.184 710.107 124.914L654.759 179.423C650.975 183.149 656.903 188.883 660.691 185.153Z" fill="#E6E6E6"/>
<path d="M694.097 200.509C709.372 187.285 722.646 171.973 733.516 155.172C736.385 150.736 729.13 146.664 726.272 151.082C715.763 167.325 702.931 181.996 688.165 194.78C684.136 198.267 690.085 203.982 694.097 200.509Z" fill="#E6E6E6"/>
<path d="M724.204 218.898C738.112 204.017 749.951 187.41 759.271 169.495C761.689 164.848 754.454 160.74 752.027 165.405C743.022 182.714 731.712 198.788 718.272 213.168C714.662 217.03 720.577 222.778 724.204 218.898Z" fill="#E6E6E6"/>
<path d="M1297.28 762.869C1296.97 762.869 1296.67 762.858 1296.37 762.84C1276.3 761.595 1207.66 752.215 1166.66 683.745C1163.63 678.691 1164.23 672.26 1168.15 667.747L1244.92 579.399C1247.77 576.118 1252.05 574.324 1256.38 574.398C1260.82 574.5 1266.53 575.773 1267.62 579.945C1276.46 613.85 1314.55 657.877 1364.18 663.717C1368.84 664.266 1371.67 668.942 1372.81 673.326C1373.94 677.673 1372.89 682.155 1369.94 685.621L1308.44 757.752C1305.67 760.996 1301.55 762.869 1297.28 762.869Z" fill="#E6E6E6"/>
<path d="M1180.84 672.092C1179.79 673.3 1179.6 675.022 1180.36 676.383C1217.45 742.35 1283.76 747.525 1296.68 747.892C1297.92 747.96 1299.09 747.42 1299.88 746.494L1360.94 674.882C1361.8 673.867 1362.07 672.572 1361.67 671.321C1361.27 670.066 1360.34 668.822 1358.96 668.76C1306.18 666.368 1263.78 611.232 1261.64 586.492C1261.53 585.314 1259.8 584.965 1258.58 584.925C1257.32 584.914 1256.18 585.39 1255.38 586.308L1180.84 672.092Z" fill="white"/>
<path d="M1211.59 687.544L1266.93 633.035C1270.72 629.309 1264.79 623.575 1261 627.306L1205.65 681.814C1201.87 685.54 1207.8 691.274 1211.59 687.544Z" fill="#E6E6E6"/>
<path d="M1244.99 702.9C1260.27 689.676 1273.54 674.364 1284.41 657.563C1287.28 653.128 1280.03 649.055 1277.17 653.473C1266.66 669.716 1253.83 684.387 1239.06 697.171C1235.03 700.659 1240.98 706.374 1244.99 702.9Z" fill="#E6E6E6"/>
<path d="M1275.1 721.289C1289.01 706.408 1300.85 689.801 1310.17 671.886C1312.58 667.239 1305.35 663.131 1302.92 667.797C1293.92 685.105 1282.61 701.179 1269.17 715.559C1265.56 719.421 1271.47 725.169 1275.1 721.289Z" fill="#E6E6E6"/>
<path d="M1067.29 1233.8L1034.13 1233.8L1018.35 1110.24L1067.3 1110.25L1067.29 1233.8Z" fill="#FFB6B6"/>
<path d="M953.669 1233.07C952.636 1234.75 952.091 1240.17 952.091 1242.13C952.091 1248.13 957.131 1253 963.347 1253H1066.05C1070.29 1253 1073.73 1249.68 1073.73 1245.58V1241.45C1073.73 1241.45 1078.81 1229.04 1068.35 1213.74C1068.35 1213.74 1055.35 1225.72 1035.92 1206.96L1030.19 1196.93L988.727 1226.23L965.743 1228.96C960.714 1229.56 956.255 1228.87 953.669 1233.07Z" fill="#2F2E41"/>
<path d="M1373.52 1170.59L1345.28 1187.37L1264.81 1090.12L1306.5 1065.35L1373.52 1170.59Z" fill="#FFB6B6"/>
<path d="M1276.36 1227.47C1276.39 1229.43 1278.86 1234.32 1279.92 1235.98C1283.18 1241.1 1290.11 1242.69 1295.41 1239.55L1382.88 1187.57C1386.5 1185.42 1387.62 1180.85 1385.4 1177.36L1383.16 1173.85C1383.16 1173.85 1380.75 1160.7 1363.54 1152.97C1363.54 1152.97 1358.97 1169.75 1332.25 1163.6L1321.93 1157.96L1302.5 1203.9L1284.41 1217.86C1280.45 1220.91 1276.28 1222.58 1276.36 1227.47Z" fill="#2F2E41"/>
<path d="M1165.09 655.921C1163.44 649.005 1163.57 642.291 1165.11 636.727L1145.13 571.828L1177.66 563.308L1194.43 630.059C1198.32 634.389 1201.45 640.361 1203.09 647.277C1206.84 663.077 1201.37 677.821 1190.88 680.208C1180.38 682.595 1168.84 671.721 1165.09 655.921Z" fill="#FFB6B6"/>
<path d="M979.973 223.319C979.973 223.319 1032.4 201.276 1061.68 233.129C1088.33 262.123 1142.42 349.367 1136.87 357.856L1190.12 600.906L1150.65 612.651L1045.93 333.088L979.973 223.319Z" fill="#FF6978"/>
<path d="M922.229 583.511L949.244 887.925L1014.53 1170.6L1084.31 1164.07L1050.55 855.31L1071.22 580.911L922.229 583.511Z" fill="#2F2E41"/>
<path d="M927.814 649.564L1096.07 908.285L1288.05 1130.76L1347.01 1094.11L1170.69 834.504C1143.7 720.152 1113.82 614.298 1059.05 581.393L927.814 649.564Z" fill="#2F2E41"/>
<path d="M917.153 657.204C909.261 657.204 901.617 654.519 895.388 649.418C887.026 642.568 882.671 632.583 883.435 622.021L898.114 486.002L892.507 337.47L892.543 337.309L909.968 256.595C910.141 254.03 910.698 251.314 911.596 248.707L937.335 173.962C941.964 160.518 954.927 151.485 969.597 151.485H992.356C1003.75 151.485 1014.33 156.951 1020.65 166.109L1040.57 194.977C1041.9 196.894 1043.01 198.953 1043.89 201.096L1087.88 308.324C1089.28 311.728 1090.07 315.308 1090.24 318.965L1103.89 616.552C1104.34 626.431 1100.23 635.886 1092.6 642.491C1085.02 649.059 1074.9 651.963 1064.87 650.468C1007.43 641.9 957.164 648.906 925.103 656.294C922.454 656.904 919.789 657.204 917.153 657.204Z" fill="#FF6978"/>
<path d="M931.235 355.2L892.964 326.933C892.964 326.933 910.974 172.552 958.249 172.552C1005.52 172.552 1030.29 146.459 1030.29 146.459C1030.29 146.459 1199.13 374.77 1151.85 400.862C1104.58 426.955 1039.29 413.909 1039.29 413.909L1016.3 218.871C1013.47 208.561 998.782 207.444 994.321 217.201L931.235 355.2Z" fill="#3F3D56"/>
<path d="M994.193 138.456C1030.33 138.456 1059.63 110.159 1059.63 75.2516C1059.63 40.3447 1030.33 12.0471 994.193 12.0471C958.053 12.0471 928.756 40.3447 928.756 75.2516C928.756 110.159 958.053 138.456 994.193 138.456Z" fill="#FFB6B6"/>
<path d="M1046.01 123.032C1040.11 125.161 1031.06 128.471 1025.16 130.599C1019.65 120 1026.4 114.499 1027.1 102.66C1027.33 98.7091 1027.92 94.7538 1027.58 90.8099C1027.24 86.8659 1025.84 82.8176 1022.76 80.2079C1018.05 76.216 1010.2 76.8651 1005.64 81.0169C1001.08 85.1687 999.778 92.029 1001.64 97.8088C983.7 90.3174 972.109 70.6638 974.587 51.9363C969.229 49.9075 963.736 47.8513 957.983 47.6961C952.23 47.5408 946.066 49.6613 943 54.366C940.851 57.6649 940.421 61.8526 938.009 64.9774C934.089 70.0548 925.617 70.4483 920.412 66.5968C915.206 62.7453 913.214 55.7461 914.325 49.5039C915.435 43.2617 907.357 30.523 911.879 25.9364C914.964 22.8075 930.275 27.2409 933.716 24.4808C936.856 21.9626 940.008 19.4361 943.469 17.347C947.862 14.6952 952.727 12.7749 957.785 11.6958C962.57 10.6751 967.488 10.407 972.381 10.1422C977.348 9.8733 984.219 0.320419 989.186 0.0515317C1003.81 -0.740085 1016.88 7.78935 1030.91 11.8502C1044.94 15.911 1053.77 27.5721 1061.53 39.5671C1072.6 56.6529 1068.84 75.3742 1061.22 91.7116C1059.34 95.7499 1065.65 99.9937 1064.72 104.329C1063.85 108.36 1059.94 111.279 1059.03 115.3C1058.24 118.738 1053.62 114.755 1052.52 118.11C1051.57 121.006 1048.77 123.05 1045.77 123.974C1042.78 124.898 1039.57 124.88 1036.42 124.852" fill="#2F2E41"/>
<path d="M1031.97 144.837L1034.27 146.459L1040.09 150.548C1057.57 162.841 1055.94 188.501 1037.04 198.644L1013.4 162.176" fill="#3F3D56"/>
<path d="M1412.27 1210.18C1418.05 1210.53 1421.24 1203.6 1416.87 1199.56L1416.43 1197.89C1416.49 1197.76 1416.55 1197.62 1416.61 1197.49C1422.45 1184.03 1442.25 1184.13 1448.04 1197.6C1453.18 1209.56 1459.73 1221.54 1461.34 1234.19C1462.06 1239.77 1461.74 1245.46 1460.46 1250.94C1472.5 1225.52 1478.84 1197.76 1478.84 1169.85C1478.84 1162.84 1478.45 1155.82 1477.63 1148.83C1476.96 1143.11 1476.04 1137.42 1474.85 1131.78C1468.4 1101.32 1454.44 1072.31 1434.3 1048.08C1424.62 1042.97 1416.55 1034.98 1411.67 1025.4C1409.92 1021.95 1408.55 1018.23 1407.9 1014.45C1409 1014.58 1412.05 998.378 1411.22 997.383C1412.76 995.133 1415.5 994.014 1417.18 991.818C1425.52 980.897 1437.01 982.804 1443.01 997.645C1455.82 1003.89 1455.95 1014.25 1448.08 1024.21C1443.08 1030.55 1442.39 1039.13 1438.01 1045.92C1438.46 1046.47 1438.93 1047.02 1439.38 1047.57C1447.66 1057.83 1454.82 1068.86 1460.86 1080.44C1459.15 1067.57 1461.67 1052.06 1465.97 1042.06C1470.85 1030.67 1480.02 1021.08 1488.09 1011.23C1497.78 999.401 1517.65 1004.56 1519.36 1019.56C1519.38 1019.7 1519.39 1019.85 1519.41 1019.99C1518.21 1020.65 1517.04 1021.34 1515.89 1022.07C1509.35 1026.25 1511.61 1036.05 1519.36 1037.2L1519.54 1037.23C1519.1 1041.4 1518.36 1045.53 1517.28 1049.6C1527.63 1088.27 1505.28 1102.35 1473.37 1102.98C1472.67 1103.33 1471.98 1103.68 1471.28 1104.01C1474.51 1112.8 1477.09 1121.82 1479.01 1130.96C1480.72 1139.04 1481.91 1147.21 1482.58 1155.41C1483.41 1165.75 1483.34 1176.15 1482.44 1186.48L1482.49 1186.11C1484.79 1174.74 1491.18 1164.11 1500.46 1156.75C1514.29 1145.78 1533.83 1141.73 1548.75 1132.91C1555.93 1128.67 1565.14 1134.16 1563.88 1142.2L1563.82 1142.58C1561.6 1143.45 1559.43 1144.47 1557.34 1145.6C1556.14 1146.25 1554.97 1146.95 1553.82 1147.68C1547.28 1151.86 1549.54 1161.66 1557.29 1162.81L1557.47 1162.84C1557.59 1162.85 1557.7 1162.87 1557.83 1162.89C1554.02 1171.63 1548.71 1179.74 1542.06 1186.74C1535.59 1220.49 1507.79 1223.7 1478.05 1213.87H1478.03C1474.78 1227.54 1470.03 1240.91 1463.92 1253.64H1413.53C1413.35 1253.1 1413.19 1252.54 1413.03 1252C1417.69 1252.28 1422.38 1252.02 1426.97 1251.2C1423.23 1246.77 1419.49 1242.3 1415.75 1237.87C1415.66 1237.78 1415.59 1237.7 1415.52 1237.61C1413.62 1235.34 1411.71 1233.09 1409.81 1230.82L1409.81 1230.82C1409.69 1223.86 1410.56 1216.92 1412.27 1210.18Z" fill="#F2F2F2"/>
<path d="M541.04 1253.79C541.04 1255.57 542.522 1257 544.367 1257H1560.28C1562.13 1257 1563.61 1255.57 1563.61 1253.79C1563.61 1252 1562.13 1250.57 1560.28 1250.57H544.367C542.522 1250.57 541.04 1252 541.04 1253.79Z" fill="#CCCCCC"/>
<path d="M701.954 220.058C707.855 223.82 712.387 228.556 715.144 233.389L773.704 265.792L756.926 292.255L699.329 256.537C693.645 255.989 687.353 253.827 681.452 250.065C667.971 241.472 661.632 227.789 667.293 219.503C672.954 211.217 688.473 211.465 701.954 220.058Z" fill="#FFB6B6"/>
<path d="M977.476 185.901C1014.82 163.78 1052.35 214.438 1019.14 242.038L1019.03 242.132L886.36 362.656L727.586 286.926L743.286 246.036L866.296 293.103L958.572 200.577C964.995 194.365 971.315 189.55 977.476 185.901Z" fill="#FF6978"/>
<path d="M190.982 387.142C187.897 387.142 185.389 389.565 185.389 392.544V476.276C185.389 479.256 187.897 481.678 190.982 481.678C194.066 481.678 196.574 479.256 196.574 476.276V392.544C196.574 389.565 194.066 387.142 190.982 387.142Z" fill="#3F3D56"/>
<path d="M245.795 467.825C265.043 467.825 280.647 453.071 280.647 434.871C280.647 416.671 265.043 401.916 245.795 401.916C226.546 401.916 210.942 416.671 210.942 434.871C210.942 453.071 226.546 467.825 245.795 467.825Z" fill="#FF6978"/>
<path d="M525.193 423.597H337.595C331.16 423.597 325.923 418.539 325.923 412.323C325.923 406.107 331.16 401.049 337.595 401.049H525.193C531.629 401.049 536.865 406.107 536.865 412.323C536.865 418.539 531.629 423.597 525.193 423.597Z" fill="#F2F2F2"/>
<path d="M671.595 461.755H337.595C331.16 461.755 325.923 456.697 325.923 450.481C325.923 444.264 331.16 439.207 337.595 439.207H671.596C678.031 439.207 683.268 444.264 683.268 450.481C683.268 456.697 678.031 461.755 671.595 461.755Z" fill="#F2F2F2"/>
<path d="M34.8526 646.039C54.1012 646.039 69.7052 631.285 69.7052 613.085C69.7052 594.885 54.1012 580.131 34.8526 580.131C15.604 580.131 0 594.885 0 613.085C0 631.285 15.604 646.039 34.8526 646.039Z" fill="#FF6978"/>
<path d="M314.251 601.811H126.653C120.218 601.811 114.981 596.754 114.981 590.537C114.981 584.321 120.217 579.263 126.653 579.263H314.251C320.687 579.263 325.923 584.321 325.923 590.537C325.923 596.754 320.687 601.811 314.251 601.811Z" fill="#F2F2F2"/>
<path d="M362.196 754.107C381.445 754.107 397.049 739.353 397.049 721.153C397.049 702.953 381.445 688.198 362.196 688.198C342.948 688.198 327.344 702.953 327.344 721.153C327.344 739.353 342.948 754.107 362.196 754.107Z" fill="#FF6978"/>
<path d="M787.997 748.037H453.997C447.561 748.037 442.325 742.979 442.325 736.763C442.325 730.547 447.561 725.489 453.997 725.489H787.997C794.433 725.489 799.669 730.547 799.669 736.763C799.669 742.979 794.433 748.037 787.997 748.037Z" fill="#F2F2F2"/>
<path d="M705.481 137.916C724.729 137.916 740.333 123.162 740.333 104.962C740.333 86.7614 724.729 72.0072 705.481 72.0072C686.232 72.0072 670.628 86.7614 670.628 104.962C670.628 123.162 686.232 137.916 705.481 137.916Z" fill="#FF6978"/>
<path d="M1347.01 690.379C1366.26 690.379 1381.87 675.625 1381.87 657.425C1381.87 639.224 1366.26 624.47 1347.01 624.47C1327.77 624.47 1312.16 639.224 1312.16 657.425C1312.16 675.625 1327.77 690.379 1347.01 690.379Z" fill="#FF6978"/>
</g>
<defs>
<clipPath id="clip0_3_238">
<rect width="1564" height="1257" fill="white"/>
</clipPath>
</defs>
</svg>
