<svg xmlns="http://www.w3.org/2000/svg" xmlns:xlink="http://www.w3.org/1999/xlink" width="250" zoomAndPan="magnify" viewBox="0 0 187.5 112.499997" height="150" preserveAspectRatio="xMidYMid meet" version="1.0"><defs><g/><clipPath id="5a6c5b2438"><path d="M 73.367188 47.199219 L 89.839844 47.199219 L 89.839844 62.921875 L 73.367188 62.921875 Z M 73.367188 47.199219 " clip-rule="nonzero"/></clipPath></defs><g clip-path="url(#5a6c5b2438)"><path fill="#7c09df" d="M 89.34375 58.523438 C 89.332031 58.53125 89.308594 58.539062 89.277344 58.539062 L 88.136719 58.539062 C 88.105469 58.539062 88.082031 58.53125 88.070312 58.523438 L 88.070312 58.316406 C 88.070312 58.316406 88.074219 58.316406 88.074219 58.316406 L 89.226562 58.316406 C 89.257812 58.316406 89.289062 58.3125 89.316406 58.308594 C 89.328125 58.308594 89.339844 58.3125 89.34375 58.316406 Z M 88.796875 60.71875 L 82.351562 62.429688 C 82.351562 62.429688 82.351562 62.425781 82.351562 62.421875 L 82.351562 54.566406 C 82.351562 54.558594 82.351562 54.554688 82.351562 54.550781 L 88.714844 52.859375 L 88.796875 52.859375 C 88.703125 53.542969 88.628906 54.171875 88.570312 54.777344 L 87.945312 54.777344 C 87.648438 54.777344 87.40625 55.019531 87.40625 55.316406 L 87.40625 55.714844 C 87.40625 55.828125 87.441406 55.933594 87.5 56.019531 C 87.441406 56.109375 87.40625 56.214844 87.40625 56.328125 L 87.40625 56.722656 C 87.40625 56.828125 87.433594 56.925781 87.488281 57.007812 C 87.394531 57.105469 87.335938 57.234375 87.335938 57.378906 L 87.335938 57.777344 C 87.335938 57.992188 87.464844 58.175781 87.648438 58.261719 C 87.644531 58.273438 87.644531 58.285156 87.644531 58.296875 L 87.644531 58.546875 C 87.644531 58.78125 87.859375 58.964844 88.136719 58.964844 L 88.503906 58.964844 C 88.558594 59.609375 88.648438 60.152344 88.796875 60.71875 Z M 81.84375 62.5 L 81.195312 62.5 C 81.152344 62.5 81.113281 62.464844 81.113281 62.421875 L 81.113281 54.566406 C 81.113281 54.527344 81.152344 54.492188 81.195312 54.492188 L 81.285156 54.492188 L 81.339844 54.507812 L 81.347656 54.492188 L 81.414062 54.492188 L 81.421875 54.507812 L 81.476562 54.492188 L 81.84375 54.492188 C 81.875 54.492188 81.898438 54.507812 81.914062 54.53125 L 81.914062 62.460938 C 81.898438 62.484375 81.875 62.5 81.84375 62.5 Z M 80.6875 62.433594 L 74.230469 60.71875 C 74.371094 60.164062 74.46875 59.546875 74.527344 58.878906 L 75.074219 58.878906 C 75.347656 58.878906 75.5625 58.695312 75.5625 58.460938 L 75.5625 58.214844 C 75.5625 58.203125 75.5625 58.191406 75.5625 58.179688 C 75.746094 58.09375 75.871094 57.90625 75.871094 57.691406 L 75.871094 57.296875 C 75.871094 57.152344 75.8125 57.019531 75.722656 56.921875 C 75.773438 56.839844 75.800781 56.746094 75.800781 56.640625 L 75.800781 56.242188 C 75.800781 56.128906 75.765625 56.023438 75.707031 55.9375 C 75.765625 55.851562 75.800781 55.746094 75.800781 55.632812 L 75.800781 55.234375 C 75.800781 54.9375 75.558594 54.695312 75.261719 54.695312 L 74.449219 54.695312 C 74.394531 54.113281 74.320312 53.507812 74.230469 52.855469 C 74.246094 52.855469 74.265625 52.855469 74.28125 52.851562 L 80.6875 54.550781 Z M 73.863281 58.441406 L 73.863281 58.234375 C 73.871094 58.230469 73.878906 58.226562 73.890625 58.222656 C 73.917969 58.230469 73.949219 58.230469 73.980469 58.230469 L 75.132812 58.230469 C 75.132812 58.234375 75.136719 58.234375 75.136719 58.234375 L 75.136719 58.441406 C 75.125 58.449219 75.105469 58.457031 75.074219 58.457031 L 74.417969 58.457031 L 74.136719 58.4375 L 74.136719 58.457031 L 73.929688 58.457031 C 73.898438 58.457031 73.875 58.449219 73.863281 58.441406 Z M 73.910156 56.757812 C 73.847656 56.757812 73.792969 56.703125 73.792969 56.640625 L 73.792969 56.242188 C 73.792969 56.210938 73.808594 56.183594 73.828125 56.164062 C 73.855469 56.167969 73.882812 56.171875 73.910156 56.171875 L 75.261719 56.171875 C 75.289062 56.171875 75.316406 56.167969 75.34375 56.164062 C 75.363281 56.183594 75.378906 56.210938 75.378906 56.242188 L 75.378906 56.640625 C 75.378906 56.703125 75.324219 56.757812 75.261719 56.757812 Z M 75.332031 57.179688 C 75.394531 57.179688 75.445312 57.234375 75.445312 57.296875 L 75.445312 57.691406 C 75.445312 57.753906 75.394531 57.808594 75.332031 57.808594 L 75.195312 57.808594 C 75.15625 57.800781 75.117188 57.796875 75.074219 57.796875 L 73.929688 57.796875 C 73.890625 57.777344 73.863281 57.738281 73.863281 57.691406 L 73.863281 57.296875 C 73.863281 57.234375 73.917969 57.179688 73.980469 57.179688 Z M 73.792969 55.234375 C 73.792969 55.171875 73.847656 55.117188 73.910156 55.117188 L 74.0625 55.117188 L 74.0625 55.128906 L 74.199219 55.117188 L 75.261719 55.117188 C 75.324219 55.117188 75.378906 55.171875 75.378906 55.234375 L 75.378906 55.632812 C 75.378906 55.664062 75.363281 55.691406 75.34375 55.710938 C 75.316406 55.707031 75.289062 55.703125 75.261719 55.703125 L 73.910156 55.703125 C 73.882812 55.703125 73.855469 55.707031 73.828125 55.710938 C 73.808594 55.691406 73.792969 55.664062 73.792969 55.632812 Z M 74.828125 52.316406 L 78.207031 53.453125 L 74.734375 52.535156 C 74.773438 52.464844 74.804688 52.390625 74.828125 52.316406 Z M 81.527344 54.027344 L 81.40625 54.066406 L 81.355469 54.066406 L 81.230469 54.027344 Z M 81.519531 47.621094 C 83.726562 47.621094 85.523438 49.410156 85.523438 51.613281 C 85.523438 51.835938 85.503906 52.058594 85.464844 52.277344 L 81.523438 53.601562 L 81.246094 53.601562 L 77.589844 52.371094 C 77.539062 52.121094 77.515625 51.867188 77.515625 51.613281 C 77.515625 49.410156 79.3125 47.621094 81.519531 47.621094 Z M 88.066406 52.59375 L 83.558594 53.789062 L 87.933594 52.316406 C 87.960938 52.414062 88.003906 52.507812 88.066406 52.59375 Z M 88.800781 52.84375 L 88.800781 52.835938 C 88.800781 52.839844 88.800781 52.84375 88.800781 52.84375 Z M 89.34375 57.777344 C 89.34375 57.820312 89.316406 57.859375 89.28125 57.878906 C 89.28125 57.878906 89.277344 57.878906 89.277344 57.878906 L 88.136719 57.878906 C 88.09375 57.878906 88.050781 57.882812 88.011719 57.890625 L 87.875 57.890625 C 87.8125 57.890625 87.761719 57.839844 87.761719 57.777344 L 87.761719 57.378906 C 87.761719 57.316406 87.8125 57.261719 87.875 57.261719 L 89.226562 57.261719 C 89.289062 57.261719 89.34375 57.316406 89.34375 57.378906 Z M 89.414062 56.328125 L 89.414062 56.722656 C 89.414062 56.785156 89.359375 56.839844 89.296875 56.839844 L 87.945312 56.839844 C 87.882812 56.839844 87.832031 56.785156 87.832031 56.722656 L 87.832031 56.328125 C 87.832031 56.296875 87.84375 56.269531 87.863281 56.246094 C 87.890625 56.25 87.917969 56.253906 87.945312 56.253906 L 89.296875 56.253906 C 89.324219 56.253906 89.351562 56.25 89.378906 56.246094 C 89.398438 56.269531 89.414062 56.296875 89.414062 56.328125 Z M 89.414062 55.316406 L 89.414062 55.714844 C 89.414062 55.746094 89.398438 55.773438 89.378906 55.796875 C 89.351562 55.789062 89.324219 55.789062 89.296875 55.789062 L 87.945312 55.789062 C 87.917969 55.789062 87.890625 55.789062 87.863281 55.796875 C 87.84375 55.773438 87.832031 55.746094 87.832031 55.714844 L 87.832031 55.316406 C 87.832031 55.253906 87.882812 55.203125 87.945312 55.203125 L 89.296875 55.203125 C 89.359375 55.203125 89.414062 55.253906 89.414062 55.316406 Z M 89.835938 55.316406 C 89.835938 55.019531 89.59375 54.777344 89.296875 54.777344 L 88.996094 54.777344 C 89.0625 54.09375 89.152344 53.371094 89.265625 52.582031 L 89 52.34375 L 88.65625 52.4375 L 88.585938 52.4375 C 88.332031 52.4375 88.3125 52.046875 88.3125 52.03125 L 88.035156 51.835938 L 85.75 52.605469 L 85.859375 52.480469 C 85.917969 52.195312 85.945312 51.902344 85.945312 51.613281 C 85.945312 49.179688 83.960938 47.199219 81.519531 47.199219 C 79.078125 47.199219 77.089844 49.179688 77.089844 51.613281 C 77.089844 51.9375 77.128906 52.261719 77.199219 52.582031 L 77.3125 52.707031 L 74.726562 51.835938 L 74.445312 52.03125 C 74.445312 52.046875 74.433594 52.324219 74.277344 52.410156 L 74.027344 52.34375 L 73.761719 52.582031 C 73.871094 53.339844 73.957031 54.035156 74.023438 54.695312 L 73.910156 54.695312 C 73.613281 54.695312 73.371094 54.9375 73.371094 55.234375 L 73.371094 55.632812 C 73.371094 55.746094 73.40625 55.851562 73.464844 55.9375 C 73.40625 56.023438 73.371094 56.128906 73.371094 56.242188 L 73.371094 56.640625 C 73.371094 56.785156 73.425781 56.917969 73.519531 57.011719 C 73.46875 57.09375 73.4375 57.191406 73.4375 57.296875 L 73.4375 57.691406 C 73.4375 57.796875 73.46875 57.894531 73.523438 57.976562 C 73.46875 58.042969 73.4375 58.125 73.4375 58.214844 L 73.4375 58.460938 C 73.4375 58.695312 73.65625 58.878906 73.929688 58.878906 L 74.101562 58.878906 C 74.039062 59.589844 73.925781 60.242188 73.765625 60.8125 L 73.917969 61.074219 L 80.847656 62.914062 L 80.933594 62.847656 C 81.007812 62.894531 81.097656 62.921875 81.195312 62.921875 L 81.84375 62.921875 C 81.9375 62.921875 82.023438 62.894531 82.101562 62.851562 L 82.179688 62.914062 L 89.109375 61.074219 L 89.261719 60.8125 C 89.089844 60.207031 88.992188 59.644531 88.929688 58.964844 L 89.277344 58.964844 C 89.554688 58.964844 89.769531 58.78125 89.769531 58.546875 L 89.769531 58.296875 C 89.769531 58.207031 89.738281 58.128906 89.6875 58.0625 C 89.738281 57.980469 89.769531 57.882812 89.769531 57.777344 L 89.769531 57.378906 C 89.769531 57.273438 89.738281 57.179688 89.6875 57.097656 C 89.78125 57 89.835938 56.867188 89.835938 56.722656 L 89.835938 56.328125 C 89.835938 56.214844 89.800781 56.109375 89.742188 56.019531 C 89.800781 55.933594 89.835938 55.828125 89.835938 55.714844 L 89.835938 55.316406 " fill-opacity="1" fill-rule="nonzero"/></g><g fill="#da5270" fill-opacity="1"><g transform="translate(39.168302, 62.139817)"><g><path d="M 3.21875 -1.640625 L 7.84375 -1.640625 L 7.84375 0 L 1.40625 0 L 1.40625 -10.703125 L 3.21875 -10.703125 Z M 3.21875 -1.640625 "/></g></g></g><g fill="#da5270" fill-opacity="1"><g transform="translate(48.863083, 62.139817)"><g><path d="M 9.0625 -9.09375 L 3.21875 -9.09375 L 3.21875 -6.1875 L 8.4375 -6.1875 L 8.4375 -4.578125 L 3.21875 -4.578125 L 3.21875 -1.625 L 9.234375 -1.625 L 9.234375 0 L 1.40625 0 L 1.40625 -10.703125 L 9.0625 -10.703125 Z M 9.0625 -9.09375 "/></g></g></g><g fill="#da5270" fill-opacity="1"><g transform="translate(60.42317, 62.139817)"><g><path d="M 8.734375 -5.265625 L 10.3125 -5.265625 L 10.3125 -1.3125 C 9.757812 -0.894531 9.109375 -0.554688 8.359375 -0.296875 C 7.609375 -0.046875 6.875 0.078125 6.15625 0.078125 C 4.570312 0.078125 3.234375 -0.441406 2.140625 -1.484375 C 1.054688 -2.535156 0.515625 -3.828125 0.515625 -5.359375 C 0.515625 -6.890625 1.066406 -8.171875 2.171875 -9.203125 C 3.273438 -10.234375 4.632812 -10.75 6.25 -10.75 C 7.007812 -10.75 7.753906 -10.613281 8.484375 -10.34375 C 9.210938 -10.070312 9.84375 -9.707031 10.375 -9.25 L 9.34375 -7.921875 C 8.46875 -8.734375 7.4375 -9.140625 6.25 -9.140625 C 5.164062 -9.140625 4.242188 -8.769531 3.484375 -8.03125 C 2.734375 -7.300781 2.359375 -6.410156 2.359375 -5.359375 C 2.359375 -4.285156 2.738281 -3.378906 3.5 -2.640625 C 4.257812 -1.910156 5.179688 -1.546875 6.265625 -1.546875 C 7.097656 -1.546875 7.921875 -1.789062 8.734375 -2.28125 Z M 8.734375 -5.265625 "/></g></g></g><g fill="#da5270" fill-opacity="1"><g transform="translate(73.396672, 62.139817)"><g/></g></g><g fill="#da5270" fill-opacity="1"><g transform="translate(78.87159, 62.139817)"><g/></g></g><g fill="#da5270" fill-opacity="1"><g transform="translate(84.346509, 62.139817)"><g/></g></g><g fill="#da5270" fill-opacity="1"><g transform="translate(89.820674, 62.139817)"><g><path d="M 3.21875 -1.640625 L 7.84375 -1.640625 L 7.84375 0 L 1.40625 0 L 1.40625 -10.703125 L 3.21875 -10.703125 Z M 3.21875 -1.640625 "/></g></g></g><g fill="#da5270" fill-opacity="1"><g transform="translate(99.515455, 62.139817)"><g><path d="M 8.203125 0 L 6.234375 -3.25 C 6.140625 -3.238281 5.976562 -3.234375 5.75 -3.234375 L 3.21875 -3.234375 L 3.21875 0 L 1.40625 0 L 1.40625 -10.703125 L 5.75 -10.703125 C 7.113281 -10.703125 8.171875 -10.382812 8.921875 -9.75 C 9.679688 -9.113281 10.0625 -8.210938 10.0625 -7.046875 C 10.0625 -6.191406 9.867188 -5.46875 9.484375 -4.875 C 9.109375 -4.289062 8.5625 -3.859375 7.84375 -3.578125 L 10.25 0 Z M 3.21875 -4.84375 L 5.75 -4.84375 C 7.488281 -4.84375 8.359375 -5.5625 8.359375 -7 C 8.359375 -8.394531 7.488281 -9.09375 5.75 -9.09375 L 3.21875 -9.09375 Z M 3.21875 -4.84375 "/></g></g></g><g fill="#da5270" fill-opacity="1"><g transform="translate(112.09993, 62.139817)"><g><path d="M 9.0625 -9.09375 L 3.21875 -9.09375 L 3.21875 -6.1875 L 8.4375 -6.1875 L 8.4375 -4.578125 L 3.21875 -4.578125 L 3.21875 -1.625 L 9.234375 -1.625 L 9.234375 0 L 1.40625 0 L 1.40625 -10.703125 L 9.0625 -10.703125 Z M 9.0625 -9.09375 "/></g></g></g><g fill="#da5270" fill-opacity="1"><g transform="translate(123.660017, 62.139817)"><g><path d="M 8.328125 -2.421875 L 2.921875 -2.421875 L 1.890625 0 L 0.015625 0 L 4.734375 -10.703125 L 6.59375 -10.703125 L 11.28125 0 L 9.34375 0 Z M 7.640625 -4.015625 L 5.609375 -8.78125 L 3.59375 -4.015625 Z M 7.640625 -4.015625 "/></g></g></g><g fill="#da5270" fill-opacity="1"><g transform="translate(136.473837, 62.139817)"><g><path d="M 1.40625 -10.703125 L 5.796875 -10.703125 C 7.398438 -10.703125 8.722656 -10.195312 9.765625 -9.1875 C 10.804688 -8.175781 11.328125 -6.894531 11.328125 -5.34375 C 11.328125 -3.800781 10.800781 -2.523438 9.75 -1.515625 C 8.707031 -0.503906 7.375 0 5.75 0 L 1.40625 0 Z M 3.21875 -9.09375 L 3.21875 -1.625 L 5.84375 -1.625 C 6.894531 -1.625 7.769531 -1.972656 8.46875 -2.671875 C 9.164062 -3.367188 9.515625 -4.253906 9.515625 -5.328125 C 9.515625 -6.410156 9.15625 -7.304688 8.4375 -8.015625 C 7.71875 -8.734375 6.828125 -9.09375 5.765625 -9.09375 Z M 3.21875 -9.09375 "/></g></g></g></svg>