<svg width="1358" height="780" viewBox="0 0 1358 780" fill="none" xmlns="http://www.w3.org/2000/svg">
<g clip-path="url(#clip0_3_238)">
<path d="M604.368 148.224C604.105 148.224 603.842 148.218 603.577 148.206C586.157 147.434 526.55 141.614 490.952 99.1262C488.322 95.9902 488.841 91.9997 492.245 89.1992C521.974 72.5099 545.197 54.4473 558.904 34.3772C561.38 32.341 565.094 31.228 568.854 31.2739C572.714 31.3369 576.271 32.5914 578.613 34.716C595.514 50.046 628.881 77.1837 662.455 86.6982C666.229 87.7687 668.96 89.9407 669.95 92.661C670.933 95.3584 670.024 98.1393 667.457 100.29L614.057 145.049C611.656 147.062 608.08 148.224 604.368 148.224Z" fill="#E6E6E6"/>
<path d="M503.265 91.895C502.356 92.6446 502.19 93.7134 502.853 94.558C535.057 135.492 592.633 138.703 603.847 138.931C604.928 138.973 605.94 138.638 606.625 138.063L659.643 93.6267C660.393 92.9965 660.624 92.1928 660.279 91.417C659.931 90.6379 659.075 90.0569 657.93 89.8277C621.922 82.5637 584.142 48.9182 573.42 38.7784C572.793 38.1859 571.825 37.8307 570.765 37.8062C569.675 37.7988 568.683 38.0942 567.989 38.6638C552.648 59.3107 531.169 77.0989 503.265 91.895Z" fill="white"/>
<path d="M529.963 101.483L578.021 67.6596C581.306 65.3475 576.16 61.7891 572.871 64.1041L524.813 97.9279C521.528 100.24 526.674 103.798 529.963 101.483Z" fill="#E6E6E6"/>
<path d="M558.969 111.013C572.233 102.807 583.758 93.3051 593.196 82.8794C595.687 80.1273 589.388 77.6004 586.906 80.3415C577.782 90.4211 566.64 99.5247 553.818 107.457C550.32 109.621 555.486 113.168 558.969 111.013Z" fill="#E6E6E6"/>
<path d="M585.111 122.423C597.187 113.189 607.466 102.884 615.559 91.7676C617.658 88.8839 611.377 86.3349 609.269 89.2298C601.45 99.9701 591.63 109.944 579.96 118.868C576.826 121.264 581.962 124.831 585.111 122.423Z" fill="#E6E6E6"/>
<path d="M648.074 161.633C647.811 161.633 647.547 161.626 647.283 161.615C629.863 160.842 570.256 155.022 534.658 112.535C532.028 109.399 532.547 105.408 535.951 102.608C564.195 85.6983 585.459 67.2077 602.61 47.7856C605.085 45.7495 608.8 44.6365 612.559 44.6823C616.42 44.7453 619.976 45.9999 622.319 48.1244C639.22 63.4544 672.587 90.5921 706.161 100.107C709.935 101.177 712.666 103.349 713.656 106.069C714.639 108.767 713.73 111.548 711.163 113.698L657.762 158.458C655.362 160.471 651.786 161.633 648.074 161.633Z" fill="#E6E6E6"/>
<path d="M546.971 105.303C546.062 106.053 545.896 107.122 546.558 107.966C578.763 148.9 636.339 152.112 647.553 152.339C648.633 152.382 649.646 152.046 650.331 151.472L703.349 107.035C704.099 106.405 704.33 105.601 703.985 104.825C703.637 104.046 702.781 103.465 701.635 103.236C665.628 95.9722 627.848 62.3267 617.126 52.1869C616.499 51.5943 615.53 51.2392 614.47 51.2146C613.381 51.2073 612.389 51.5027 611.695 52.0723C593.318 73.1508 572.645 91.8356 546.971 105.303Z" fill="white"/>
<path d="M573.669 114.892L621.727 81.068C625.012 78.7559 619.865 75.1975 616.576 77.5125L568.518 111.336C565.233 113.648 570.38 117.207 573.669 114.892Z" fill="#E6E6E6"/>
<path d="M602.675 124.421C615.938 116.215 627.464 106.714 636.902 96.2878C639.393 93.5357 633.094 91.0088 630.612 93.75C621.488 103.83 610.345 112.933 597.524 120.866C594.026 123.03 599.192 126.576 602.675 124.421Z" fill="#E6E6E6"/>
<path d="M628.817 135.831C640.893 126.598 651.172 116.292 659.265 105.176C661.364 102.292 655.083 99.7433 652.975 102.638C645.156 113.379 635.336 123.353 623.666 132.276C620.532 134.673 625.668 138.24 628.817 135.831Z" fill="#E6E6E6"/>
<path d="M1126.41 473.379C1126.15 473.379 1125.88 473.373 1125.62 473.361C1108.2 472.589 1048.59 466.768 1012.99 424.281C1010.36 421.145 1010.88 417.154 1014.29 414.354L1080.94 359.532C1083.42 357.496 1087.13 356.383 1090.89 356.429C1094.75 356.492 1099.71 357.282 1100.65 359.871C1108.33 380.91 1141.41 408.229 1184.5 411.853C1188.55 412.194 1191 415.095 1191.99 417.816C1192.97 420.513 1192.06 423.294 1189.5 425.445L1136.1 470.204C1133.7 472.217 1130.12 473.379 1126.41 473.379Z" fill="#E6E6E6"/>
<path d="M1025.31 417.05C1024.4 417.799 1024.23 418.868 1024.89 419.713C1057.1 460.647 1114.67 463.858 1125.89 464.086C1126.97 464.128 1127.98 463.793 1128.67 463.218L1181.68 418.781C1182.43 418.151 1182.67 417.348 1182.32 416.572C1181.97 415.793 1181.16 415.021 1179.97 414.982C1134.14 413.498 1097.32 379.285 1095.46 363.933C1095.37 363.202 1093.87 362.985 1092.81 362.961C1091.72 362.954 1090.72 363.249 1090.03 363.819L1025.31 417.05Z" fill="white"/>
<path d="M1052 426.638L1100.06 392.814C1103.35 390.502 1098.2 386.944 1094.91 389.259L1046.85 423.083C1043.57 425.395 1048.71 428.953 1052 426.638Z" fill="#E6E6E6"/>
<path d="M1081.01 436.167C1094.27 427.961 1105.8 418.46 1115.24 408.034C1117.73 405.282 1111.43 402.755 1108.95 405.496C1099.82 415.576 1088.68 424.679 1075.86 432.612C1072.36 434.776 1077.53 438.322 1081.01 436.167Z" fill="#E6E6E6"/>
<path d="M1107.15 447.578C1119.23 438.344 1129.51 428.039 1137.6 416.922C1139.7 414.039 1133.42 411.49 1131.31 414.384C1123.49 425.125 1113.67 435.099 1102 444.022C1098.87 446.419 1104 449.986 1107.15 447.578Z" fill="#E6E6E6"/>
<path d="M926.713 765.604L897.918 765.602L884.22 688.934L926.719 688.936L926.713 765.604Z" fill="#FFB6B6"/>
<path d="M828.058 765.153C827.161 766.195 826.688 769.559 826.688 770.771C826.688 774.497 831.064 777.518 836.461 777.518H925.636C929.318 777.518 932.304 775.457 932.304 772.915V770.353C932.304 770.353 936.715 762.65 927.633 753.157C927.633 753.157 916.345 760.59 899.477 748.947L894.503 742.727L858.498 760.904L838.541 762.6C834.175 762.97 830.304 762.542 828.058 765.153Z" fill="#2F2E41"/>
<path d="M1192.61 726.378L1168.09 736.792L1098.22 676.446L1134.42 661.076L1192.61 726.378Z" fill="#FFB6B6"/>
<path d="M1108.24 761.677C1108.27 762.889 1110.42 765.925 1111.34 766.958C1114.17 770.131 1120.19 771.121 1124.79 769.169L1200.74 736.915C1203.88 735.584 1204.85 732.749 1202.92 730.584L1200.98 728.401C1200.98 728.401 1198.89 720.245 1183.95 715.444C1183.95 715.444 1179.98 725.858 1156.77 722.042L1147.81 718.544L1130.94 747.048L1115.23 755.71C1111.8 757.606 1108.17 758.641 1108.24 761.677Z" fill="#2F2E41"/>
<path d="M1011.63 407.015C1010.2 402.724 1010.31 398.558 1011.65 395.105L994.298 354.834L1022.55 349.547L1037.11 390.968C1040.48 393.654 1043.2 397.36 1044.63 401.652C1047.89 411.456 1043.14 420.605 1034.02 422.086C1024.91 423.567 1014.88 416.82 1011.63 407.015Z" fill="#FFB6B6"/>
<path d="M850.898 138.575C850.898 138.575 896.423 124.897 921.842 144.663C944.98 162.654 991.949 216.791 987.125 222.058L1033.37 372.877L999.091 380.166L908.171 206.689L850.898 138.575Z" fill="#340068"/>
<path d="M800.759 362.083L824.215 550.98L880.901 726.384L941.496 722.336L912.176 530.741L930.122 360.47L800.759 362.083Z" fill="#2F2E41"/>
<path d="M805.608 403.07L951.705 563.613L1118.4 701.662L1169.59 678.921L1016.49 517.831C993.062 446.872 967.113 381.187 919.558 360.769L805.608 403.07Z" fill="#2F2E41"/>
<path d="M814.134 403.855C807.281 403.855 800.644 402.189 795.236 399.024C787.975 394.773 784.193 388.577 784.857 382.023L797.602 297.62L792.734 205.452L792.765 205.352L807.895 155.267C808.045 153.675 808.529 151.99 809.309 150.372L831.657 103.991C835.676 95.6486 846.932 90.0435 859.67 90.0435H879.432C889.327 90.0435 898.51 93.4357 903.997 99.1185L921.298 117.031C922.448 118.221 923.417 119.499 924.181 120.829L962.374 187.366C963.585 189.478 964.275 191.7 964.422 193.969L976.271 378.629C976.667 384.76 973.094 390.627 966.471 394.725C959.889 398.801 951.106 400.603 942.396 399.675C892.523 394.359 848.874 398.706 821.037 403.291C818.737 403.669 816.422 403.855 814.134 403.855Z" fill="#340068"/>
<path d="M808.578 220.411L775.349 202.87C775.349 202.87 790.986 107.073 832.034 107.073C873.082 107.073 894.584 90.8816 894.584 90.8816C894.584 90.8816 1041.18 232.554 1000.14 248.745C959.088 264.936 902.402 256.841 902.402 256.841L882.437 135.815C879.984 129.417 867.228 128.724 863.356 134.779L808.578 220.411Z" fill="#3F3D56"/>
<path d="M863.244 85.9155C894.624 85.9155 920.062 68.3561 920.062 46.6955C920.062 25.0349 894.624 7.47552 863.244 7.47552C831.865 7.47552 806.426 25.0349 806.426 46.6955C806.426 68.3561 831.865 85.9155 863.244 85.9155Z" fill="#FFB6B6"/>
<path d="M908.238 76.3445C903.113 77.6655 895.255 79.7193 890.13 81.0402C885.35 74.4629 891.207 71.0498 891.814 63.7032C892.017 61.2515 892.529 58.7971 892.235 56.3498C891.941 53.9025 890.723 51.3904 888.049 49.771C883.957 47.2939 877.144 47.6968 873.183 50.273C869.223 52.8493 868.094 57.1063 869.712 60.6928C854.133 56.0442 844.069 43.8487 846.22 32.2278C841.568 30.9689 836.799 29.6929 831.803 29.5966C826.808 29.5003 821.456 30.8161 818.794 33.7355C816.928 35.7825 816.555 38.3811 814.46 40.3201C811.057 43.4708 803.701 43.7149 799.181 41.325C794.661 38.935 792.931 34.5919 793.896 30.7184C794.86 26.845 787.845 18.9403 791.772 16.0942C794.45 14.1526 807.745 16.9037 810.733 15.1909C813.459 13.6283 816.196 12.0606 819.201 10.7642C823.015 9.11876 827.24 7.92713 831.632 7.25755C835.786 6.62419 840.056 6.45782 844.305 6.29348C848.618 6.12663 854.584 0.198828 858.897 0.0319767C871.594 -0.459241 882.943 4.83349 895.125 7.35332C907.308 9.87315 914.972 17.1092 921.716 24.5524C931.321 35.1546 928.056 46.7716 921.442 56.9093C919.807 59.4152 925.293 62.0486 924.481 64.739C923.726 67.2399 920.332 69.0512 919.538 71.5464C918.859 73.68 914.848 71.2081 913.891 73.2902C913.065 75.087 910.631 76.3556 908.03 76.9291C905.428 77.5025 902.643 77.4909 899.912 77.4738" fill="#2F2E41"/>
<path d="M896.042 89.8751L898.045 90.8816L903.093 93.4187C918.271 101.047 916.86 116.97 900.448 123.264L879.924 100.635" fill="#3F3D56"/>
<path d="M1226.25 750.949C1231.27 751.166 1234.04 746.864 1230.25 744.357L1229.87 743.32C1229.92 743.238 1229.97 743.155 1230.02 743.072C1235.09 734.722 1252.29 734.78 1257.32 743.142C1261.78 750.564 1267.46 757.998 1268.86 765.846C1269.49 769.31 1269.21 772.839 1268.09 776.238C1278.55 760.465 1284.06 743.242 1284.06 725.921C1284.06 721.569 1283.71 717.218 1283.01 712.877C1282.43 709.326 1281.63 705.797 1280.59 702.3C1274.99 683.399 1262.87 665.396 1245.39 650.36C1236.98 647.188 1229.97 642.23 1225.74 636.287C1224.21 634.143 1223.02 631.838 1222.46 629.489C1223.41 629.575 1226.06 619.518 1225.34 618.901C1226.68 617.505 1229.06 616.811 1230.52 615.448C1237.76 608.671 1247.74 609.854 1252.94 619.064C1264.07 622.94 1264.18 629.368 1257.35 635.551C1253.01 639.484 1252.41 644.807 1248.6 649.018C1248.99 649.364 1249.4 649.7 1249.79 650.046C1256.98 656.411 1263.2 663.253 1268.44 670.441C1266.96 662.453 1269.15 652.829 1272.88 646.625C1277.12 639.557 1285.08 633.604 1292.09 627.493C1300.5 620.153 1317.76 623.356 1319.24 632.661C1319.26 632.751 1319.27 632.841 1319.28 632.931C1318.24 633.336 1317.22 633.767 1316.23 634.221C1310.55 636.815 1312.51 642.893 1319.24 643.61L1319.39 643.626C1319.02 646.214 1318.37 648.779 1317.43 651.302C1326.42 675.296 1307.02 684.035 1279.31 684.428C1278.7 684.644 1278.1 684.86 1277.49 685.066C1280.3 690.522 1282.54 696.119 1284.2 701.791C1285.69 706.804 1286.73 711.87 1287.31 716.958C1288.03 723.377 1287.96 729.829 1287.18 736.238L1287.23 736.011C1289.22 728.953 1294.77 722.36 1302.83 717.791C1314.84 710.982 1331.81 708.475 1344.76 703.002C1351 700.367 1358.99 703.772 1357.9 708.762L1357.85 709.001C1355.92 709.542 1354.04 710.17 1352.22 710.874C1351.18 711.279 1350.16 711.71 1349.16 712.164C1343.48 714.758 1345.44 720.836 1352.17 721.553L1352.33 721.57C1352.44 721.58 1352.53 721.591 1352.64 721.602C1349.33 727.026 1344.72 732.059 1338.95 736.4C1333.33 757.346 1309.19 759.334 1283.37 753.234H1283.35C1280.53 761.721 1276.41 770.013 1271.11 777.916H1227.35C1227.19 777.58 1227.05 777.234 1226.91 776.898C1230.96 777.072 1235.04 776.909 1239.02 776.4C1235.77 773.651 1232.53 770.879 1229.28 768.13C1229.2 768.076 1229.14 768.021 1229.08 767.967C1227.43 766.56 1225.77 765.164 1224.12 763.756L1224.12 763.755C1224.02 759.434 1224.77 755.128 1226.25 750.949Z" fill="#F2F2F2"/>
<path d="M469.777 778.005C469.777 779.112 471.064 780 472.667 780H1354.77C1356.37 780 1357.66 779.112 1357.66 778.005C1357.66 776.899 1356.37 776.011 1354.77 776.011H472.667C471.064 776.011 469.777 776.899 469.777 778.005Z" fill="#CCCCCC"/>
<path d="M609.497 136.552C614.621 138.886 618.556 141.825 620.95 144.824L671.797 164.93L657.228 181.352L607.218 159.187C602.282 158.848 596.82 157.506 591.696 155.172C579.99 149.84 574.486 141.349 579.402 136.207C584.317 131.065 597.791 131.219 609.497 136.552Z" fill="#FFB6B6"/>
<path d="M848.73 115.356C881.154 101.629 913.738 133.064 884.908 150.191L884.81 150.249L769.614 225.037L631.753 178.045L645.385 152.672L752.194 181.877L832.315 124.463C837.892 120.608 843.38 117.621 848.73 115.356Z" fill="#340068"/>
<path d="M165.827 240.232C163.149 240.232 160.971 241.735 160.971 243.584V295.541C160.971 297.39 163.149 298.893 165.827 298.893C168.505 298.893 170.683 297.39 170.683 295.541V243.584C170.683 241.735 168.505 240.232 165.827 240.232Z" fill="#3F3D56"/>
<path d="M213.42 290.297C230.134 290.297 243.682 281.142 243.682 269.848C243.682 258.554 230.134 249.399 213.42 249.399C196.707 249.399 183.158 258.554 183.158 269.848C183.158 281.142 196.707 290.297 213.42 290.297Z" fill="#340068"/>
<path d="M456.018 262.852H293.13C287.542 262.852 282.995 259.714 282.995 255.857C282.995 251.999 287.541 248.861 293.13 248.861H456.018C461.606 248.861 466.153 251.999 466.153 255.857C466.153 259.714 461.606 262.852 456.018 262.852Z" fill="#F2F2F2"/>
<path d="M583.137 286.53H293.13C287.542 286.53 282.995 283.392 282.995 279.534C282.995 275.677 287.541 272.539 293.13 272.539H583.137C588.725 272.539 593.272 275.677 593.272 279.534C593.272 283.392 588.725 286.53 583.137 286.53Z" fill="#F2F2F2"/>
<path d="M30.262 400.884C46.9753 400.884 60.5241 391.728 60.5241 380.435C60.5241 369.141 46.9753 359.986 30.262 359.986C13.5488 359.986 0 369.141 0 380.435C0 391.728 13.5488 400.884 30.262 400.884Z" fill="#340068"/>
<path d="M272.86 373.439H109.971C104.383 373.439 99.8367 370.301 99.8367 366.443C99.8367 362.586 104.383 359.448 109.971 359.448H272.86C278.448 359.448 282.995 362.586 282.995 366.443C282.995 370.301 278.448 373.439 272.86 373.439Z" fill="#F2F2F2"/>
<path d="M314.49 467.942C331.203 467.942 344.752 458.787 344.752 447.493C344.752 436.2 331.203 427.044 314.49 427.044C297.777 427.044 284.228 436.2 284.228 447.493C284.228 458.787 297.777 467.942 314.49 467.942Z" fill="#340068"/>
<path d="M684.207 464.176H394.199C388.611 464.176 384.065 461.037 384.065 457.18C384.065 453.322 388.611 450.184 394.199 450.184H684.207C689.795 450.184 694.342 453.322 694.342 457.18C694.342 461.037 689.795 464.176 684.207 464.176Z" fill="#F2F2F2"/>
<path d="M612.559 85.5803C629.273 85.5803 642.822 76.425 642.822 65.1313C642.822 53.8376 629.273 44.6823 612.559 44.6823C595.846 44.6823 582.297 53.8376 582.297 65.1313C582.297 76.425 595.846 85.5803 612.559 85.5803Z" fill="#340068"/>
<path d="M1169.59 428.397C1186.31 428.397 1199.86 419.242 1199.86 407.948C1199.86 396.655 1186.31 387.499 1169.59 387.499C1152.88 387.499 1139.33 396.655 1139.33 407.948C1139.33 419.242 1152.88 428.397 1169.59 428.397Z" fill="#340068"/>
</g>
<defs>
<clipPath id="clip0_3_238">
<rect width="1358" height="780" fill="white"/>
</clipPath>
</defs>
</svg>
