<svg width="153" height="149" viewBox="0 0 153 149" fill="none" xmlns="http://www.w3.org/2000/svg">
<g clip-path="url(#clip0_3_329)">
<path d="M44.6453 14.6614L46.2624 17.987L52.0316 14.2237L54.9979 13.0304C55.3832 12.8754 55.7309 12.59 56.0062 12.2027C56.2815 11.8155 56.4747 11.34 56.5666 10.8237C56.6584 10.3074 56.6457 9.76848 56.5296 9.26071C56.4136 8.75295 56.1983 8.29414 55.9053 7.93014C55.4711 7.39076 54.8945 7.09444 54.2974 7.10373C53.7003 7.11301 53.1293 7.42718 52.7049 7.97992L50.2157 11.2217L44.6453 14.6614Z" fill="#A0616A"/>
<path d="M47.3746 17.8319L45.2184 13.3978L37.043 18.1304C36.4559 18.4703 35.9455 19.0039 35.5613 19.6797C35.1771 20.3555 34.9321 21.1504 34.8501 21.9874C34.749 23.0194 34.9003 24.067 35.2822 24.9783C35.664 25.8895 36.2565 26.6171 36.9737 27.0555L50.0063 34.7669C50.9059 35.3167 51.9331 35.382 52.8687 34.9487C53.8043 34.5154 54.5741 33.6179 55.0135 32.4479C55.2499 31.8187 55.3829 31.131 55.4039 30.4297C55.4249 29.7283 55.3335 29.029 55.1355 28.3772C54.9375 27.7254 54.6375 27.1358 54.2549 26.6467C53.8722 26.1576 53.4156 25.78 52.9148 25.5385L43.1386 21.0856L47.3746 17.8319Z" fill="#340068"/>
<path d="M133.659 93.1073C133.659 91.7754 133.32 90.6945 132.902 90.692H19.1169C18.6977 90.6945 18.3596 91.7754 18.3577 93.1073V147.936C18.3577 148.06 18.3228 148.179 18.2596 148.271C18.1965 148.362 18.1097 148.42 18.0161 148.432C17.7107 148.47 17.4053 148.506 17.0999 148.539C17.0924 148.539 17.0848 148.542 17.0772 148.542C16.9111 148.562 16.7449 148.576 16.5787 148.594H16.5768C16.4913 148.386 16.4068 148.176 16.3233 147.965C16.295 147.893 16.2803 147.814 16.2803 147.734V89.9738C16.2803 89.6061 16.2916 89.2358 16.3105 88.8705C16.3375 88.3689 16.3847 87.8695 16.4521 87.3746C16.7713 85.066 17.4927 83.503 18.3124 83.498H133.705C133.824 83.4991 133.943 83.532 134.052 83.5949C134.213 83.6887 134.359 83.8229 134.481 83.9901C134.647 84.2166 134.788 84.4716 134.902 84.748C135.306 85.6848 135.595 87.0813 135.697 88.7065C135.697 88.7214 135.699 88.7363 135.699 88.7512C135.726 89.1538 135.739 89.5638 135.737 89.9738L135.763 95.2991L135.78 98.4748L135.831 108.44L135.85 111.978L135.933 148.308C135.933 148.44 135.894 148.566 135.823 148.66C135.752 148.753 135.656 148.805 135.556 148.805H134.037C133.937 148.805 133.841 148.753 133.77 148.66C133.699 148.566 133.659 148.44 133.659 148.308V93.1073Z" fill="#E6E6E6"/>
<path d="M19.1652 120.262L16.717 119.684L17.2477 106.983L20.8612 107.837L19.1652 120.262Z" fill="#A0616A"/>
<path d="M18.7928 123.643L11.2642 121.864L11.2813 121.739C11.4208 120.716 11.8634 119.808 12.5116 119.215C13.1598 118.622 13.9605 118.392 14.7377 118.575L14.7379 118.575L16.3004 117.527L18.6789 119.507L19.3361 119.662L18.7928 123.643Z" fill="#2F2E41"/>
<path d="M78.541 106.857H63.5287C63.1264 106.856 62.7407 106.646 62.4562 106.271C62.1717 105.897 62.0117 105.389 62.0112 104.86V86.7872C62.0117 86.2578 62.1717 85.7503 62.4562 85.3759C62.7407 85.0016 63.1264 84.7911 63.5287 84.7905H78.541C78.9433 84.7911 79.329 85.0016 79.6135 85.3759C79.898 85.7503 80.058 86.2578 80.0585 86.7872V104.86C80.058 105.389 79.898 105.897 79.6135 106.271C79.329 106.646 78.9433 106.856 78.541 106.857Z" fill="#3F3D56"/>
<path d="M77.4859 105.193H64.5842C64.227 105.192 63.8845 105.005 63.6319 104.673C63.3793 104.34 63.2372 103.89 63.2368 103.42V88.2274C63.2372 87.7574 63.3793 87.3068 63.6319 86.9744C63.8845 86.6421 64.227 86.4551 64.5842 86.4546H77.4859C77.8432 86.4551 78.1856 86.6421 78.4382 86.9744C78.6908 87.3068 78.8329 87.7574 78.8333 88.2274V103.42C78.8329 103.89 78.6908 104.34 78.4382 104.673C78.1856 105.005 77.8432 105.192 77.4859 105.193Z" fill="white"/>
<path d="M76.1987 90.8776H65.871C65.7817 90.8776 65.696 90.8309 65.6328 90.7478C65.5697 90.6647 65.5342 90.552 65.5342 90.4345C65.5342 90.3169 65.5697 90.2042 65.6328 90.1211C65.696 90.038 65.7817 89.9913 65.871 89.9913H76.1987C76.288 89.9913 76.3737 90.038 76.4368 90.1211C76.5 90.2042 76.5355 90.3169 76.5355 90.4345C76.5355 90.552 76.5 90.6647 76.4368 90.7478C76.3737 90.8309 76.288 90.8776 76.1987 90.8776Z" fill="#340068"/>
<path d="M76.1987 92.6288H65.871C65.7817 92.6288 65.696 92.5821 65.6328 92.499C65.5697 92.4159 65.5342 92.3032 65.5342 92.1856C65.5342 92.0681 65.5697 91.9554 65.6328 91.8722C65.696 91.7891 65.7817 91.7424 65.871 91.7424H76.1987C76.288 91.7424 76.3737 91.7891 76.4368 91.8722C76.5 91.9554 76.5355 92.0681 76.5355 92.1856C76.5355 92.3032 76.5 92.4159 76.4368 92.499C76.3737 92.5821 76.288 92.6288 76.1987 92.6288Z" fill="#340068"/>
<path d="M70.3478 94.3801H65.871C65.7817 94.3801 65.696 94.3334 65.6328 94.2502C65.5697 94.1671 65.5342 94.0544 65.5342 93.9368C65.5342 93.8193 65.5697 93.7066 65.6328 93.6235C65.696 93.5403 65.7817 93.4937 65.871 93.4937H70.3478C70.4371 93.4937 70.5228 93.5403 70.586 93.6235C70.6492 93.7066 70.6846 93.8193 70.6846 93.9368C70.6846 94.0544 70.6492 94.1671 70.586 94.2502C70.5228 94.3334 70.4371 94.3801 70.3478 94.3801Z" fill="#340068"/>
<path d="M76.1987 98.0478H65.871C65.7817 98.0478 65.696 98.0011 65.6328 97.918C65.5697 97.8349 65.5342 97.7222 65.5342 97.6046C65.5342 97.4871 65.5697 97.3744 65.6328 97.2913C65.696 97.2081 65.7817 97.1614 65.871 97.1614H76.1987C76.288 97.1614 76.3737 97.2081 76.4368 97.2913C76.5 97.3744 76.5355 97.4871 76.5355 97.6046C76.5355 97.7222 76.5 97.8349 76.4368 97.918C76.3737 98.0011 76.288 98.0478 76.1987 98.0478Z" fill="#E4E4E4"/>
<path d="M76.1987 99.799H65.8711C65.8268 99.7991 65.7829 99.7878 65.7419 99.7656C65.701 99.7433 65.6637 99.7107 65.6324 99.6696C65.601 99.6284 65.5761 99.5795 65.5592 99.5256C65.5422 99.4718 65.5334 99.4141 65.5334 99.3558C65.5334 99.2975 65.5422 99.2398 65.5592 99.1859C65.5761 99.1321 65.601 99.0832 65.6324 99.042C65.6637 99.0009 65.701 98.9682 65.7419 98.946C65.7829 98.9238 65.8268 98.9125 65.8711 98.9126H76.1987C76.2881 98.9126 76.3737 98.9593 76.4369 99.0424C76.5001 99.1255 76.5356 99.2382 76.5356 99.3558C76.5356 99.4733 76.5001 99.5861 76.4369 99.6692C76.3737 99.7523 76.2881 99.799 76.1987 99.799Z" fill="#E4E4E4"/>
<path d="M70.3478 101.55H65.871C65.7817 101.55 65.696 101.504 65.6328 101.42C65.5697 101.337 65.5342 101.225 65.5342 101.107C65.5342 100.989 65.5697 100.877 65.6328 100.794C65.696 100.711 65.7817 100.664 65.871 100.664H70.3478C70.4371 100.664 70.5228 100.711 70.586 100.794C70.6492 100.877 70.6846 100.989 70.6846 101.107C70.6846 101.225 70.6492 101.337 70.586 101.42C70.5228 101.504 70.4371 101.55 70.3478 101.55Z" fill="#E4E4E4"/>
<path d="M102.74 58.58H90.4798C90.3064 58.5804 90.1401 58.6713 90.0177 58.8329C89.8952 58.9945 89.8265 59.2135 89.8267 59.4417V84.9257H103.395V59.4417C103.395 59.3285 103.378 59.2164 103.345 59.1119C103.313 59.0073 103.264 58.9123 103.204 58.8323C103.143 58.7522 103.071 58.6888 102.991 58.6455C102.912 58.6022 102.826 58.58 102.74 58.58ZM96.6514 73.0597C96.2679 73.0574 95.9007 72.8559 95.6296 72.4992C95.3585 72.1425 95.2054 71.6593 95.2036 71.1548V68.2155C95.204 67.7106 95.3568 67.2266 95.6282 66.8699C95.8997 66.5131 96.2677 66.3127 96.6514 66.3127C97.035 66.3127 97.403 66.5131 97.6745 66.8699C97.946 67.2266 98.0987 67.7106 98.0991 68.2155V71.1548C98.0973 71.6593 97.9442 72.1425 97.6731 72.4992C97.402 72.856 97.0348 73.0574 96.6514 73.0597Z" fill="#2F2E41"/>
<path d="M89.7844 84.1105V86.5692C89.7846 86.6966 89.8232 86.8188 89.8916 86.9088C89.9601 86.9989 90.0529 87.0496 90.1497 87.0499H103.072C103.169 87.0493 103.261 86.9984 103.33 86.9084C103.398 86.8184 103.437 86.6965 103.437 86.5692V84.1105H89.7844Z" fill="#3F3D56"/>
<path d="M123.043 18.8093H70.6337C70.1834 18.8102 69.7518 19.046 69.4334 19.4649C69.115 19.8838 68.9358 20.4518 68.9351 21.0442V67.5778C68.9355 68.1704 69.1146 68.7386 69.433 69.1576C69.7515 69.5766 70.1833 69.8122 70.6337 69.8128H123.043C123.493 69.8122 123.925 69.5766 124.243 69.1576C124.562 68.7386 124.741 68.1704 124.741 67.5778V21.0442C124.741 20.4518 124.561 19.8838 124.243 19.4649C123.925 19.046 123.493 18.8102 123.043 18.8093Z" fill="#3F3D56"/>
<path d="M122.605 20.4235H71.0715C70.8304 20.4242 70.5994 20.5507 70.4291 20.7752C70.2588 20.9998 70.1631 21.304 70.1631 21.6213V67.0015C70.1635 67.3183 70.2593 67.622 70.4296 67.8461C70.5999 68.0701 70.8307 68.1962 71.0715 68.1968H122.605C122.846 68.1962 123.077 68.0701 123.247 67.8461C123.417 67.622 123.513 67.3183 123.514 67.0015V21.6213C123.514 21.304 123.418 20.9998 123.248 20.7752C123.077 20.5507 122.846 20.4242 122.605 20.4235Z" fill="white"/>
<path d="M112.567 87.9055H81.9075C81.8236 87.9055 81.7407 87.8809 81.6649 87.8334C81.5892 87.7859 81.5224 87.7167 81.4695 87.631C81.4167 87.5452 81.379 87.445 81.3593 87.3377C81.3396 87.2304 81.3383 87.1186 81.3556 87.0105L81.8313 84.0376C81.8584 83.8712 81.9279 83.7221 82.0283 83.6149C82.1287 83.5078 82.2539 83.449 82.3832 83.4484H112.092C112.221 83.449 112.346 83.5078 112.447 83.6149C112.547 83.7221 112.616 83.8712 112.643 84.0376L113.119 87.0105C113.136 87.1186 113.135 87.2304 113.116 87.3377C113.096 87.445 113.058 87.5452 113.005 87.631C112.952 87.7167 112.886 87.7859 112.81 87.8334C112.734 87.8809 112.651 87.9055 112.567 87.9055Z" fill="#2F2E41"/>
<path d="M83.4532 83.9837H82.6933C82.6424 83.9837 82.6011 84.038 82.6011 84.105V84.6079C82.6011 84.6749 82.6424 84.7292 82.6933 84.7292H83.4532C83.5041 84.7292 83.5454 84.6749 83.5454 84.6079V84.105C83.5454 84.038 83.5041 83.9837 83.4532 83.9837Z" fill="#3F3D56"/>
<path d="M85.3416 83.9837H84.5817C84.5308 83.9837 84.4895 84.038 84.4895 84.105V84.6079C84.4895 84.6749 84.5308 84.7292 84.5817 84.7292H85.3416C85.3925 84.7292 85.4338 84.6749 85.4338 84.6079V84.105C85.4338 84.038 85.3925 83.9837 85.3416 83.9837Z" fill="#3F3D56"/>
<path d="M87.2303 83.9837H86.4704C86.4195 83.9837 86.3782 84.038 86.3782 84.105V84.6079C86.3782 84.6749 86.4195 84.7292 86.4704 84.7292H87.2303C87.2812 84.7292 87.3225 84.6749 87.3225 84.6079V84.105C87.3225 84.038 87.2812 83.9837 87.2303 83.9837Z" fill="#3F3D56"/>
<path d="M89.1187 83.9837H88.3588C88.3079 83.9837 88.2666 84.038 88.2666 84.105V84.6079C88.2666 84.6749 88.3079 84.7292 88.3588 84.7292H89.1187C89.1696 84.7292 89.2109 84.6749 89.2109 84.6079V84.105C89.2109 84.038 89.1696 83.9837 89.1187 83.9837Z" fill="#3F3D56"/>
<path d="M91.0074 83.9837H90.2475C90.1966 83.9837 90.1553 84.038 90.1553 84.105V84.6079C90.1553 84.6749 90.1966 84.7292 90.2475 84.7292H91.0074C91.0583 84.7292 91.0996 84.6749 91.0996 84.6079V84.105C91.0996 84.038 91.0583 83.9837 91.0074 83.9837Z" fill="#3F3D56"/>
<path d="M92.896 83.9837H92.1361C92.0852 83.9837 92.0439 84.038 92.0439 84.105V84.6079C92.0439 84.6749 92.0852 84.7292 92.1361 84.7292H92.896C92.947 84.7292 92.9882 84.6749 92.9882 84.6079V84.105C92.9882 84.038 92.947 83.9837 92.896 83.9837Z" fill="#3F3D56"/>
<path d="M94.7845 83.9837H94.0246C93.9737 83.9837 93.9324 84.038 93.9324 84.105V84.6079C93.9324 84.6749 93.9737 84.7292 94.0246 84.7292H94.7845C94.8354 84.7292 94.8767 84.6749 94.8767 84.6079V84.105C94.8767 84.038 94.8354 83.9837 94.7845 83.9837Z" fill="#3F3D56"/>
<path d="M96.6731 83.9837H95.9132C95.8623 83.9837 95.821 84.038 95.821 84.105V84.6079C95.821 84.6749 95.8623 84.7292 95.9132 84.7292H96.6731C96.7241 84.7292 96.7653 84.6749 96.7653 84.6079V84.105C96.7653 84.038 96.7241 83.9837 96.6731 83.9837Z" fill="#3F3D56"/>
<path d="M98.5618 83.9837H97.8019C97.751 83.9837 97.7097 84.038 97.7097 84.105V84.6079C97.7097 84.6749 97.751 84.7292 97.8019 84.7292H98.5618C98.6127 84.7292 98.654 84.6749 98.654 84.6079V84.105C98.654 84.038 98.6127 83.9837 98.5618 83.9837Z" fill="#3F3D56"/>
<path d="M100.45 83.9837H99.6903C99.6394 83.9837 99.5981 84.038 99.5981 84.105V84.6079C99.5981 84.6749 99.6394 84.7292 99.6903 84.7292H100.45C100.501 84.7292 100.542 84.6749 100.542 84.6079V84.105C100.542 84.038 100.501 83.9837 100.45 83.9837Z" fill="#3F3D56"/>
<path d="M102.339 83.9837H101.579C101.528 83.9837 101.487 84.038 101.487 84.105V84.6079C101.487 84.6749 101.528 84.7292 101.579 84.7292H102.339C102.39 84.7292 102.431 84.6749 102.431 84.6079V84.105C102.431 84.038 102.39 83.9837 102.339 83.9837Z" fill="#3F3D56"/>
<path d="M104.228 83.9837H103.468C103.417 83.9837 103.375 84.038 103.375 84.105V84.6079C103.375 84.6749 103.417 84.7292 103.468 84.7292H104.228C104.278 84.7292 104.32 84.6749 104.32 84.6079V84.105C104.32 84.038 104.278 83.9837 104.228 83.9837Z" fill="#3F3D56"/>
<path d="M106.116 83.9837H105.356C105.305 83.9837 105.264 84.038 105.264 84.105V84.6079C105.264 84.6749 105.305 84.7292 105.356 84.7292H106.116C106.167 84.7292 106.208 84.6749 106.208 84.6079V84.105C106.208 84.038 106.167 83.9837 106.116 83.9837Z" fill="#3F3D56"/>
<path d="M108.005 83.9837H107.245C107.194 83.9837 107.153 84.038 107.153 84.105V84.6079C107.153 84.6749 107.194 84.7292 107.245 84.7292H108.005C108.056 84.7292 108.097 84.6749 108.097 84.6079V84.105C108.097 84.038 108.056 83.9837 108.005 83.9837Z" fill="#3F3D56"/>
<path d="M109.893 83.9837H109.133C109.082 83.9837 109.041 84.038 109.041 84.105V84.6079C109.041 84.6749 109.082 84.7292 109.133 84.7292H109.893C109.944 84.7292 109.985 84.6749 109.985 84.6079V84.105C109.985 84.038 109.944 83.9837 109.893 83.9837Z" fill="#3F3D56"/>
<path d="M111.782 83.9837H111.022C110.971 83.9837 110.93 84.038 110.93 84.105V84.6079C110.93 84.6749 110.971 84.7292 111.022 84.7292H111.782C111.833 84.7292 111.874 84.6749 111.874 84.6079V84.105C111.874 84.038 111.833 83.9837 111.782 83.9837Z" fill="#3F3D56"/>
<path d="M83.4307 85.2261H82.6708C82.6199 85.2261 82.5786 85.2804 82.5786 85.3474V85.8503C82.5786 85.9173 82.6199 85.9716 82.6708 85.9716H83.4307C83.4816 85.9716 83.5229 85.9173 83.5229 85.8503V85.3474C83.5229 85.2804 83.4816 85.2261 83.4307 85.2261Z" fill="#3F3D56"/>
<path d="M85.3194 85.2261H84.5595C84.5086 85.2261 84.4673 85.2804 84.4673 85.3474V85.8503C84.4673 85.9173 84.5086 85.9716 84.5595 85.9716H85.3194C85.3703 85.9716 85.4116 85.9173 85.4116 85.8503V85.3474C85.4116 85.2804 85.3703 85.2261 85.3194 85.2261Z" fill="#3F3D56"/>
<path d="M87.2078 85.2261H86.4479C86.397 85.2261 86.3557 85.2804 86.3557 85.3474V85.8503C86.3557 85.9173 86.397 85.9716 86.4479 85.9716H87.2078C87.2587 85.9716 87.3 85.9173 87.3 85.8503V85.3474C87.3 85.2804 87.2587 85.2261 87.2078 85.2261Z" fill="#3F3D56"/>
<path d="M89.0965 85.2261H88.3366C88.2857 85.2261 88.2444 85.2804 88.2444 85.3474V85.8503C88.2444 85.9173 88.2857 85.9716 88.3366 85.9716H89.0965C89.1474 85.9716 89.1887 85.9173 89.1887 85.8503V85.3474C89.1887 85.2804 89.1474 85.2261 89.0965 85.2261Z" fill="#3F3D56"/>
<path d="M90.9851 85.2261H90.2253C90.1743 85.2261 90.1331 85.2804 90.1331 85.3474V85.8503C90.1331 85.9173 90.1743 85.9716 90.2253 85.9716H90.9851C91.0361 85.9716 91.0773 85.9173 91.0773 85.8503V85.3474C91.0773 85.2804 91.0361 85.2261 90.9851 85.2261Z" fill="#3F3D56"/>
<path d="M92.8736 85.2261H92.1137C92.0628 85.2261 92.0215 85.2804 92.0215 85.3474V85.8503C92.0215 85.9173 92.0628 85.9716 92.1137 85.9716H92.8736C92.9245 85.9716 92.9658 85.9173 92.9658 85.8503V85.3474C92.9658 85.2804 92.9245 85.2261 92.8736 85.2261Z" fill="#3F3D56"/>
<path d="M94.7622 85.2261H94.0024C93.9514 85.2261 93.9102 85.2804 93.9102 85.3474V85.8503C93.9102 85.9173 93.9514 85.9716 94.0024 85.9716H94.7622C94.8132 85.9716 94.8544 85.9173 94.8544 85.8503V85.3474C94.8544 85.2804 94.8132 85.2261 94.7622 85.2261Z" fill="#3F3D56"/>
<path d="M96.6509 85.2261H95.891C95.8401 85.2261 95.7988 85.2804 95.7988 85.3474V85.8503C95.7988 85.9173 95.8401 85.9716 95.891 85.9716H96.6509C96.7018 85.9716 96.7431 85.9173 96.7431 85.8503V85.3474C96.7431 85.2804 96.7018 85.2261 96.6509 85.2261Z" fill="#3F3D56"/>
<path d="M98.5393 85.2261H97.7794C97.7285 85.2261 97.6873 85.2804 97.6873 85.3474V85.8503C97.6873 85.9173 97.7285 85.9716 97.7794 85.9716H98.5393C98.5903 85.9716 98.6315 85.9173 98.6315 85.8503V85.3474C98.6315 85.2804 98.5903 85.2261 98.5393 85.2261Z" fill="#3F3D56"/>
<path d="M100.428 85.2261H99.6681C99.6172 85.2261 99.5759 85.2804 99.5759 85.3474V85.8503C99.5759 85.9173 99.6172 85.9716 99.6681 85.9716H100.428C100.479 85.9716 100.52 85.9173 100.52 85.8503V85.3474C100.52 85.2804 100.479 85.2261 100.428 85.2261Z" fill="#3F3D56"/>
<path d="M102.316 85.2261H101.557C101.506 85.2261 101.464 85.2804 101.464 85.3474V85.8503C101.464 85.9173 101.506 85.9716 101.557 85.9716H102.316C102.367 85.9716 102.409 85.9173 102.409 85.8503V85.3474C102.409 85.2804 102.367 85.2261 102.316 85.2261Z" fill="#3F3D56"/>
<path d="M104.205 85.2261H103.445C103.394 85.2261 103.353 85.2804 103.353 85.3474V85.8503C103.353 85.9173 103.394 85.9716 103.445 85.9716H104.205C104.256 85.9716 104.297 85.9173 104.297 85.8503V85.3474C104.297 85.2804 104.256 85.2261 104.205 85.2261Z" fill="#3F3D56"/>
<path d="M106.094 85.2261H105.334C105.283 85.2261 105.242 85.2804 105.242 85.3474V85.8503C105.242 85.9173 105.283 85.9716 105.334 85.9716H106.094C106.145 85.9716 106.186 85.9173 106.186 85.8503V85.3474C106.186 85.2804 106.145 85.2261 106.094 85.2261Z" fill="#3F3D56"/>
<path d="M107.982 85.2261H107.222C107.171 85.2261 107.13 85.2804 107.13 85.3474V85.8503C107.13 85.9173 107.171 85.9716 107.222 85.9716H107.982C108.033 85.9716 108.074 85.9173 108.074 85.8503V85.3474C108.074 85.2804 108.033 85.2261 107.982 85.2261Z" fill="#3F3D56"/>
<path d="M109.871 85.2261H109.111C109.06 85.2261 109.019 85.2804 109.019 85.3474V85.8503C109.019 85.9173 109.06 85.9716 109.111 85.9716H109.871C109.922 85.9716 109.963 85.9173 109.963 85.8503V85.3474C109.963 85.2804 109.922 85.2261 109.871 85.2261Z" fill="#3F3D56"/>
<path d="M111.76 85.2261H111C110.949 85.2261 110.907 85.2804 110.907 85.3474V85.8503C110.907 85.9173 110.949 85.9716 111 85.9716H111.76C111.81 85.9716 111.852 85.9173 111.852 85.8503V85.3474C111.852 85.2804 111.81 85.2261 111.76 85.2261Z" fill="#3F3D56"/>
<path d="M99.1059 86.7172H91.736C91.6851 86.7172 91.6438 86.7715 91.6438 86.8385V87.3413C91.6438 87.4083 91.6851 87.4626 91.736 87.4626H99.1059C99.1568 87.4626 99.1981 87.4083 99.1981 87.3413V86.8385C99.1981 86.7715 99.1568 86.7172 99.1059 86.7172Z" fill="#3F3D56"/>
<path d="M119.056 144.621L117.6 141.542L117.309 143.301C117.258 143.61 117.207 143.923 117.16 144.233C116.746 143.769 116.306 143.339 115.876 142.926C114.554 141.664 113.232 140.4 111.912 139.134L112.325 142.29C112.58 144.233 112.847 146.216 113.477 147.993C113.547 148.194 113.623 148.393 113.704 148.587H119.849C119.899 148.407 119.933 148.22 119.951 148.03C119.953 148.018 119.954 148.005 119.953 147.993C120.05 146.788 119.543 145.652 119.056 144.621Z" fill="#F0F0F0"/>
<path d="M35.9585 144.621L34.5024 141.542L34.2115 143.301C34.1606 143.61 34.1096 143.923 34.0623 144.233C33.6487 143.769 33.2087 143.339 32.7781 142.926C31.4561 141.664 30.1347 140.4 28.814 139.134L29.2276 142.29C29.4825 144.233 29.7488 146.216 30.3796 147.993C30.4495 148.194 30.525 148.393 30.6063 148.587H36.7517C36.8012 148.407 36.8354 148.22 36.8537 148.03C36.8552 148.018 36.8559 148.005 36.8555 147.993C36.9519 146.788 36.4458 145.652 35.9585 144.621Z" fill="#F0F0F0"/>
<path d="M152.775 148.924L100.698 149C100.638 149 100.581 148.969 100.539 148.913C100.496 148.858 100.473 148.783 100.473 148.704C100.473 148.626 100.496 148.55 100.539 148.495C100.581 148.439 100.638 148.408 100.698 148.408L152.775 148.332C152.835 148.332 152.892 148.363 152.934 148.419C152.976 148.474 153 148.549 153 148.628C153 148.706 152.976 148.781 152.934 148.837C152.892 148.892 152.835 148.924 152.775 148.924Z" fill="#CACACA"/>
<path d="M120.015 26.6759H71.7947C71.7446 26.6745 71.6969 26.6473 71.6619 26.6001C71.6268 26.5529 71.6072 26.4896 71.6072 26.4236C71.6072 26.3577 71.6268 26.2943 71.6619 26.2472C71.6969 26.2 71.7446 26.1728 71.7947 26.1713H120.015C120.065 26.1728 120.112 26.2 120.148 26.2472C120.183 26.2943 120.202 26.3577 120.202 26.4236C120.202 26.4896 120.183 26.5529 120.148 26.6001C120.112 26.6473 120.065 26.6745 120.015 26.6759Z" fill="#CACACA"/>
<path d="M75.0772 24.8831C75.6978 24.8831 76.2009 24.2063 76.2009 23.3715C76.2009 22.5366 75.6978 21.8599 75.0772 21.8599C74.4565 21.8599 73.9534 22.5366 73.9534 23.3715C73.9534 24.2063 74.4565 24.8831 75.0772 24.8831Z" fill="#3F3D56"/>
<path d="M78.9595 24.8831C79.5801 24.8831 80.0833 24.2063 80.0833 23.3715C80.0833 22.5366 79.5801 21.8599 78.9595 21.8599C78.3388 21.8599 77.8357 22.5366 77.8357 23.3715C77.8357 24.2063 78.3388 24.8831 78.9595 24.8831Z" fill="#3F3D56"/>
<path d="M82.8416 24.8831C83.4622 24.8831 83.9653 24.2063 83.9653 23.3715C83.9653 22.5366 83.4622 21.8599 82.8416 21.8599C82.2209 21.8599 81.7178 22.5366 81.7178 23.3715C81.7178 24.2063 82.2209 24.8831 82.8416 24.8831Z" fill="#3F3D56"/>
<path d="M117.677 22.2345H114.92C114.865 22.2359 114.813 22.2655 114.775 22.3169C114.736 22.3682 114.715 22.4373 114.715 22.5092C114.715 22.5812 114.736 22.6502 114.775 22.7016C114.813 22.753 114.865 22.7825 114.92 22.784H117.677C117.732 22.7825 117.784 22.753 117.822 22.7016C117.86 22.6502 117.882 22.5812 117.882 22.5092C117.882 22.4373 117.86 22.3682 117.822 22.3169C117.784 22.2655 117.732 22.2359 117.677 22.2345Z" fill="#3F3D56"/>
<path d="M117.677 23.2658H114.92C114.865 23.2672 114.813 23.2968 114.775 23.3482C114.736 23.3996 114.715 23.4686 114.715 23.5406C114.715 23.6125 114.736 23.6815 114.775 23.7329C114.813 23.7843 114.865 23.8139 114.92 23.8153H117.677C117.732 23.8139 117.784 23.7843 117.822 23.7329C117.86 23.6815 117.882 23.6125 117.882 23.5406C117.882 23.4686 117.86 23.3996 117.822 23.3482C117.784 23.2968 117.732 23.2672 117.677 23.2658Z" fill="#3F3D56"/>
<path d="M117.677 24.2958H114.92C114.865 24.2972 114.813 24.3268 114.775 24.3782C114.736 24.4295 114.715 24.4986 114.715 24.5705C114.715 24.6424 114.736 24.7115 114.775 24.7629C114.813 24.8143 114.865 24.8438 114.92 24.8453H117.677C117.732 24.8438 117.784 24.8143 117.822 24.7629C117.86 24.7115 117.882 24.6424 117.882 24.5705C117.882 24.4986 117.86 24.4295 117.822 24.3782C117.784 24.3268 117.732 24.2972 117.677 24.2958Z" fill="#3F3D56"/>
<path d="M99.7982 40.4221H93.7728C93.3203 40.4221 92.9534 40.9049 92.9534 41.5003C92.9534 42.0958 93.3203 42.5786 93.7728 42.5786H99.7982C100.251 42.5786 100.618 42.0958 100.618 41.5003C100.618 40.9049 100.251 40.4221 99.7982 40.4221Z" fill="#340068"/>
<path d="M103.69 44.735H89.8802C89.4277 44.735 89.0608 45.2177 89.0608 45.8132C89.0608 46.4087 89.4277 46.8914 89.8802 46.8914H103.69C104.143 46.8914 104.51 46.4087 104.51 45.8132C104.51 45.2177 104.143 44.735 103.69 44.735Z" fill="#E6E6E6"/>
<path d="M103.69 49.0479H89.8802C89.4277 49.0479 89.0608 49.5306 89.0608 50.1261C89.0608 50.7216 89.4277 51.2043 89.8802 51.2043H103.69C104.143 51.2043 104.51 50.7216 104.51 50.1261C104.51 49.5306 104.143 49.0479 103.69 49.0479Z" fill="#E6E6E6"/>
<path d="M76.724 65.595C76.7252 66.4832 76.6049 67.3645 76.369 68.1967H71.0715C70.8307 68.1962 70.5999 68.0701 70.4296 67.8461C70.2593 67.622 70.1635 67.3183 70.1631 67.0015V58.2346C70.4591 58.1716 70.7584 58.14 71.0583 58.1401C71.8023 58.1401 72.5391 58.3329 73.2265 58.7075C73.9139 59.0821 74.5385 59.6312 75.0647 60.3235C75.5908 61.0157 76.0081 61.8376 76.2928 62.7421C76.5775 63.6466 76.7241 64.616 76.724 65.595Z" fill="#E6E6E6"/>
<path d="M66.2718 72.5264C66.1925 75.5456 61.3124 83.6913 58.7458 84.8592C58.3095 85.058 58.0546 85.1673 58.0546 85.1673L57.1613 84.812L46.3435 80.5055C44.4492 81.9717 38.7986 82.7172 34.1621 83.0899C30.4718 83.3856 27.4218 83.4452 27.4218 83.4452C26.3331 94.3396 24.1876 104.761 20.5681 114.522L16.2244 113.528L20.328 77.1683C20.4166 76.3831 20.6786 75.6495 21.0814 75.0586C21.4843 74.4677 22.0102 74.0456 22.5939 73.8447L52.1131 63.6849C52.1131 63.6849 53.7411 63.2972 57.1745 65.4765C62.827 69.0648 66.3285 70.3297 66.2718 72.5264Z" fill="#2F2E41"/>
<path d="M56.1214 141.133L53.9155 142.645L48.4326 132.169L51.6885 129.937L56.1214 141.133Z" fill="#A0616A"/>
<path d="M57.3983 144.108L50.6147 148.758L50.57 148.645C50.2052 147.724 50.1335 146.65 50.3706 145.659C50.6078 144.668 51.1344 143.841 51.8346 143.361L52.584 141.275L55.3857 140.927L55.9779 140.521L57.3983 144.108Z" fill="#2F2E41"/>
<path d="M60.6314 71.9422C61.6214 74.668 60.1543 84.859 58.2884 87.4553L57.7931 87.8985L57.6256 88.0133C56.5063 92.9951 44.4945 107.566 44.4945 107.566C48.5518 114.367 51.0805 122.728 52.6939 132.024L49.0895 134.215L35.8833 108.275C35.5374 107.596 35.3559 106.794 35.3627 105.977C35.3695 105.159 35.5643 104.363 35.9214 103.694L41.309 93.596L50.0878 71.2216C56.3608 70.9669 59.9102 69.9597 60.6314 71.9422Z" fill="#2F2E41"/>
<path d="M65.9684 73.5868C47.0083 69.7929 45.2809 66.3811 45.0955 66.4419L44.9309 66.4957L47.6778 60.3865L48.6854 58.8205L47.9104 58.0917L48.2179 55.0642C48.4578 53.8377 48.6519 52.3932 48.5484 52.1998C48.3348 51.8885 47.8591 51.3225 47.8543 51.3169L47.7932 51.2441L48.5072 49.0519L49.4635 31.5246L51.929 25.0573L57.0178 21.0878L61.5033 21.1593L65.4451 25.97C67.1186 27.0292 68.4798 28.7854 69.3175 30.9662C70.1552 33.1469 70.4227 35.6304 70.0785 38.0316L68.0762 51.9469L67.3396 59.1192L68.5415 60.7005L67.7937 61.6845L67.3491 65.0352L67.8045 68.8299C68.1605 72.2779 66.5777 72.4834 66.4607 72.5264C66.4538 72.529 66.1099 73.7134 66.0954 73.7134C66.059 73.7134 66.0559 73.6043 65.9684 73.5868Z" fill="#340068"/>
<path d="M64.9731 87.4217C65.1896 87.1435 65.3571 86.8061 65.4638 86.4334C65.5705 86.0608 65.6138 85.6619 65.5907 85.2648C65.5675 84.8677 65.4785 84.4822 65.3299 84.1353C65.1812 83.7884 64.9766 83.4886 64.7304 83.257L66.8102 73.9716L63.1538 75.4408L61.7393 84.0331C61.471 84.6031 61.371 85.2829 61.4582 85.9435C61.5454 86.6041 61.8137 87.1996 62.2123 87.6173C62.6109 88.035 63.1121 88.2458 63.6209 88.2098C64.1297 88.1737 64.6108 87.8933 64.9731 87.4217Z" fill="#A0616A"/>
<path d="M65.3106 80.9789L61.3584 78.6462L64.5286 61.3238L58.6246 42.4663C58.3328 41.5342 58.2005 40.529 58.2372 39.522C58.2738 38.515 58.4785 37.5311 58.8367 36.6399C59.1948 35.7487 59.6977 34.9722 60.3096 34.3655C60.9215 33.7588 61.6274 33.3368 62.3772 33.1295C63.7318 32.7569 65.1434 33.1066 66.3022 34.1019C67.4611 35.0971 68.2726 36.6565 68.5586 38.4381L72.1493 60.9186L65.3106 80.9789Z" fill="#340068"/>
<path d="M49.7053 14.8088L51.1499 6.90327C51.1996 6.63286 51.3287 6.39942 51.509 6.25415C51.6893 6.10888 51.9061 6.06365 52.1117 6.12839L53.4212 6.54267C53.6267 6.608 53.8041 6.77793 53.9145 7.01517C54.0249 7.25241 54.0593 7.53759 54.0101 7.80814L52.5654 15.7137C52.5158 15.9841 52.3866 16.2175 52.2063 16.3628C52.026 16.508 51.8093 16.5533 51.6036 16.4885L50.2942 16.0742C50.0887 16.0089 49.9113 15.839 49.8008 15.6017C49.6904 15.3645 49.6561 15.0793 49.7053 14.8088Z" fill="#3F3D56"/>
<path d="M52.1913 6.58005C52.0805 6.54517 51.9637 6.56955 51.8665 6.64783C51.7694 6.72611 51.6998 6.85191 51.673 6.99762L50.2284 14.9031C50.2019 15.0489 50.2204 15.2026 50.2799 15.3305C50.3394 15.4583 50.435 15.5499 50.5457 15.5851L51.8552 15.9994C51.966 16.0342 52.0828 16.0099 52.1799 15.9316C52.2771 15.8533 52.3467 15.7275 52.3735 15.5818L53.8181 7.67627C53.8446 7.53048 53.8261 7.3768 53.7666 7.24896C53.7071 7.12111 53.6115 7.02954 53.5008 6.99433L52.1913 6.58005Z" fill="#340068"/>
<path d="M58.2498 19.7942C61.7917 19.7942 64.663 16.0163 64.663 11.3559C64.663 6.69561 61.7917 2.91766 58.2498 2.91766C54.7079 2.91766 51.8367 6.69561 51.8367 11.3559C51.8367 16.0163 54.7079 19.7942 58.2498 19.7942Z" fill="#A0616A"/>
<path d="M61.2079 16.9981L61.4388 15.289C61.5808 14.1556 61.4333 12.9922 61.0194 11.9808C60.6055 10.9694 59.9486 10.1669 59.1513 9.69894L58.9532 9.57287L59.1165 9.45809C59.1684 9.42157 59.2089 9.36231 59.2311 9.29056C59.2532 9.21882 59.2556 9.13914 59.2378 9.06533C59.22 8.99153 59.1831 8.92826 59.1335 8.8865C59.0839 8.84475 59.0248 8.82714 58.9664 8.83673L58.7811 8.86707C58.6547 8.88741 58.5266 8.85925 58.4122 8.78598C58.2977 8.7127 58.2018 8.59744 58.136 8.45408C58.0702 8.31072 58.0373 8.14538 58.0413 7.97799C58.0453 7.8106 58.086 7.6483 58.1585 7.51065C57.5183 7.8597 56.8352 8.05296 56.1425 8.08105C55.14 8.07111 54.269 7.42814 53.9235 6.4429C53.8394 6.19795 53.7876 5.93591 53.7704 5.66805C52.7115 6.2171 52.1405 7.86289 52.1346 7.88012L51.8215 8.79936L51.9555 7.80756C51.9596 7.77735 52.3695 4.77357 52.9637 2.90997C53.6027 0.906233 56.2626 -0.149873 60.2583 0.0172051C64.1611 0.17858 65.027 6.03375 65.1013 6.60027C66.2101 8.004 65.8072 10.6617 65.4662 12.1276C64.9139 14.5015 63.8241 16.8637 63.2236 16.9881C63.1698 17.0013 63.1143 16.9934 63.0639 16.9652C63.0136 16.937 62.9707 16.8899 62.9407 16.8297C62.8806 16.7039 62.8009 16.5964 62.7068 16.5142C62.6128 16.4321 62.5065 16.3771 62.3951 16.353C61.9099 16.2622 61.409 16.7857 61.4041 16.7909L61.2079 16.9981Z" fill="#2F2E41"/>
<path d="M52.3024 148.924L0.224708 149C0.165182 149 0.108154 148.968 0.066123 148.913C0.0240922 148.858 0.000488281 148.782 0.000488281 148.704C0.000488281 148.626 0.0240922 148.551 0.066123 148.495C0.108154 148.44 0.165182 148.408 0.224708 148.408L52.3024 148.332C52.362 148.332 52.4192 148.363 52.4614 148.419C52.5036 148.474 52.5272 148.549 52.5272 148.628C52.5272 148.706 52.5036 148.781 52.4614 148.837C52.4192 148.892 52.362 148.924 52.3024 148.924Z" fill="#CACACA"/>
</g>
<defs>
<clipPath id="clip0_3_329">
<rect width="153" height="149" fill="white"/>
</clipPath>
</defs>
</svg>
